<?xml version="1.0" standalone="no"?>
<!DOCTYPE svg PUBLIC "-//W3C//DTD SVG 1.1//EN" "http://www.w3.org/Graphics/SVG/1.1/DTD/svg11.dtd" >
<svg xmlns="http://www.w3.org/2000/svg" xmlns:xlink="http://www.w3.org/1999/xlink" version="1.1">
<metadata></metadata>
<defs>
<font id="gt_walsheim_prolight" horiz-adv-x="1208" >
<font-face units-per-em="2048" ascent="1567" descent="-481" />
<missing-glyph horiz-adv-x="522" />
<glyph unicode="&#xfb01;" horiz-adv-x="1157" d="M47 819v113h205v188q0 81 19 142t47.5 95t68 55t73 27.5t70.5 6.5q83 0 138 -25v-114q-66 20 -107 20q-28 0 -49.5 -3t-47 -15.5t-42 -33t-28 -59t-11.5 -90.5v-194h285v-113h-285v-819h-131v819h-205zM807 1241q0 53 34 88t87 35q54 0 88.5 -35t34.5 -88 q0 -51 -34.5 -86t-88.5 -35q-53 0 -87 34.5t-34 86.5zM862 0v932h131v-932h-131z" />
<glyph unicode="&#xfb02;" horiz-adv-x="1157" d="M47 819v113h205v188q0 81 19 142t47.5 95t68 55t73 27.5t70.5 6.5q83 0 138 -25v-114q-66 20 -107 20q-28 0 -49.5 -3t-47 -15.5t-42 -33t-28 -59t-11.5 -90.5v-194h285v-113h-285v-819h-131v819h-205zM862 0v1434h131v-1434h-131z" />
<glyph horiz-adv-x="0" />
<glyph horiz-adv-x="682" />
<glyph unicode="&#xd;" horiz-adv-x="522" />
<glyph unicode=" "  horiz-adv-x="522" />
<glyph unicode="&#x09;" horiz-adv-x="522" />
<glyph unicode="&#xa0;" horiz-adv-x="522" />
<glyph unicode="!" horiz-adv-x="520" d="M135 113q0 53 35.5 90t87.5 37q54 0 90.5 -37t36.5 -90t-36.5 -89t-90.5 -36q-52 0 -87.5 36t-35.5 89zM195 406v1028h131v-1028h-131z" />
<glyph unicode="&#x22;" horiz-adv-x="794" d="M123 1300q0 50 33.5 83.5t83.5 33.5q51 0 84.5 -33.5t33.5 -83.5q0 -24 -4 -40l-75 -365h-74l-78 365q-4 32 -4 40zM436 1300q0 50 34 83.5t83 33.5q51 0 85 -33.5t34 -83.5q0 -24 -4 -40l-76 -365h-74l-78 365q-4 16 -4 40z" />
<glyph unicode="#" horiz-adv-x="1110" d="M51 438v107h223l48 344h-209v106h225l59 439h111l-59 -439h309l59 439h111l-60 -439h191v-106h-207l-47 -344h192v-107h-206l-62 -438h-111l62 438h-309l-62 -438h-110l61 438h-209zM385 545h309l47 344h-309z" />
<glyph unicode="$" horiz-adv-x="1138" d="M82 436h137q0 -156 98.5 -250t270.5 -94q152 0 236.5 69t84.5 193q0 102 -59 164t-172 92l-244 58q-145 37 -226 128t-81 240q0 150 110.5 259t299.5 118v184h102v-188q174 -19 275 -128.5t104 -285.5h-139q-3 142 -85.5 220.5t-230.5 78.5q-143 0 -220 -71t-77 -181 q0 -106 62.5 -169.5t189.5 -94.5l250 -63q131 -34 205 -123.5t74 -235.5q0 -167 -109.5 -270t-298.5 -115v-176h-102v176q-216 13 -335.5 138t-119.5 327z" />
<glyph unicode="%" horiz-adv-x="1564" d="M41 1063q0 93 41 171.5t123.5 127.5t191.5 49q161 0 258 -102t97 -246t-97 -246t-258 -102q-109 0 -191.5 49t-123.5 127.5t-41 171.5zM160 1063q0 -103 63.5 -173.5t173.5 -70.5t174 70.5t64 173.5t-64 173.5t-174 70.5t-173.5 -70.5t-63.5 -173.5zM248 29l966 1396 l91 -51l-965 -1397zM811 338q0 93 41 171.5t123.5 127.5t191.5 49q161 0 258 -102t97 -246t-97 -246t-258 -102q-109 0 -191.5 49t-123.5 127.5t-41 171.5zM930 338q0 -103 63.5 -173.5t173.5 -70.5t174 70.5t64 173.5t-64 173.5t-174 70.5t-173.5 -70.5t-63.5 -173.5z" />
<glyph unicode="&#x26;" horiz-adv-x="1212" d="M102 389q0 136 84 234t215 122q-127 29 -198.5 116.5t-71.5 213.5q0 173 123.5 279t331.5 106q199 0 323.5 -107t124.5 -296h-141q0 126 -81.5 204t-225.5 78q-141 0 -227.5 -71t-86.5 -193q0 -124 76.5 -196t224.5 -72h56v-127h-56q-161 0 -245 -79.5t-84 -213.5 q0 -126 91 -208.5t245 -82.5q161 0 249 101.5t93 275.5h-179v123h453v-123h-133q-6 -232 -133.5 -366t-349.5 -134q-213 0 -345.5 115.5t-132.5 300.5z" />
<glyph unicode="'" horiz-adv-x="481" d="M123 1300q0 50 33.5 83.5t83.5 33.5q51 0 84.5 -33.5t33.5 -83.5q0 -24 -4 -40l-75 -365h-74l-78 365q-4 32 -4 40z" />
<glyph unicode="(" horiz-adv-x="634" d="M133 555q0 159 33.5 300.5t95.5 258t138.5 210t174.5 179.5l80 -76q-194 -187 -292.5 -396t-98.5 -476q0 -266 98.5 -474.5t292.5 -395.5l-80 -76q-98 86 -174.5 179.5t-138.5 209.5t-95.5 257.5t-33.5 299.5z" />
<glyph unicode=")" horiz-adv-x="634" d="M-20 -315q195 186 293 395t98 475q0 268 -98 477t-293 395l81 76q98 -86 174.5 -179.5t138.5 -210t95 -258t33 -300.5q0 -158 -33 -299.5t-95 -257.5t-138.5 -209.5t-174.5 -179.5z" />
<glyph unicode="*" horiz-adv-x="878" d="M61 1155l33 98l307 -116l-14 331h107l-15 -331l305 116l33 -98l-313 -90l211 -270l-88 -62l-187 285l-188 -285l-88 62l211 270z" />
<glyph unicode="+" horiz-adv-x="1032" d="M113 584v118h340v347h127v-347h340v-118h-340v-342h-127v342h-340z" />
<glyph unicode="," horiz-adv-x="598" d="M164 111q0 53 35 87.5t90 34.5q69 0 119.5 -58.5t50.5 -160.5q0 -116 -62 -186t-168 -70q-32 0 -59 6v70q40 -4 61 -4q45 0 76.5 24t40.5 66q13 35 8 100q-25 -28 -73 -28q-51 0 -85 32.5t-34 86.5z" />
<glyph unicode="-" horiz-adv-x="843" d="M113 473v119h616v-119h-616z" />
<glyph unicode="." horiz-adv-x="579" d="M164 113q0 53 36.5 90t88.5 37q53 0 90 -37t37 -90q0 -52 -37 -88.5t-90 -36.5t-89 36t-36 89z" />
<glyph unicode="/" horiz-adv-x="872" d="M31 -78l702 1628l109 -45l-703 -1628z" />
<glyph unicode="0" horiz-adv-x="1243" d="M102 698q0 352 132.5 535.5t386.5 183.5q255 0 387.5 -183.5t132.5 -535.5t-132.5 -535t-387.5 -183q-254 0 -386.5 183.5t-132.5 534.5zM233 698q0 -297 98 -447.5t290 -150.5q389 0 389 598q0 596 -389 596q-192 0 -290 -150t-98 -446z" />
<glyph unicode="1" horiz-adv-x="739" d="M78 1036v119q90 0 146 11.5t89.5 41t45.5 72.5t12 113h127v-1393h-138v1036h-282z" />
<glyph unicode="2" horiz-adv-x="1142" d="M113 0q0 234 79 370.5t271 231.5l223 111q207 103 207 317q0 117 -78 189.5t-203 72.5q-151 0 -238 -93.5t-87 -256.5h-142q0 215 127 343t340 128q195 0 310.5 -102.5t115.5 -274.5q0 -277 -270 -415l-223 -113q-143 -72 -203.5 -157t-69.5 -226h772v-125h-931z" />
<glyph unicode="3" horiz-adv-x="1132" d="M88 412h139q0 -146 91.5 -230t248.5 -84q147 0 236.5 77.5t89.5 203.5q0 132 -87 207.5t-241 75.5h-108v120h108q141 0 220 68.5t79 191.5q0 114 -82 184t-215 70q-143 0 -229 -76t-86 -204h-135q0 181 122.5 289t325.5 108q198 0 318.5 -101.5t120.5 -267.5 q0 -127 -70.5 -209.5t-202.5 -111.5q128 -9 213.5 -107.5t85.5 -236.5q0 -179 -128.5 -289t-334.5 -110q-222 0 -350.5 115.5t-128.5 316.5z" />
<glyph unicode="4" horiz-adv-x="1161" d="M143 471v922h138v-797h432v432h137v-432h235v-125h-235v-473h-137v473h-570z" />
<glyph unicode="5" horiz-adv-x="1165" d="M135 350h139q6 -114 94.5 -181t229.5 -67q157 0 249.5 98.5t92.5 268.5q0 167 -84.5 260.5t-234.5 93.5q-129 0 -205 -45.5t-121 -146.5h-131v762h821v-125h-696v-496q50 79 139.5 122.5t208.5 43.5q202 0 319 -124.5t117 -340.5q0 -220 -131 -356.5t-346 -136.5 q-198 0 -324 102.5t-137 267.5z" />
<glyph unicode="6" horiz-adv-x="1153" d="M94 467q0 188 107 319l407 607h166l-309 -445q58 10 108 10q217 0 349.5 -141.5t132.5 -349.5q0 -210 -132.5 -351t-349.5 -141q-144 0 -254 66.5t-167.5 177.5t-57.5 248zM225 467q0 -160 94.5 -265.5t253.5 -105.5q160 0 255.5 105.5t95.5 265.5t-95.5 265.5 t-255.5 105.5q-159 0 -253.5 -105.5t-94.5 -265.5z" />
<glyph unicode="7" horiz-adv-x="1021" d="M92 1266v127h930l-741 -1393h-152l684 1266h-721z" />
<glyph unicode="8" horiz-adv-x="1161" d="M102 375q0 133 73 224.5t200 119.5q-116 29 -184 118t-68 210q0 165 126 265.5t331 100.5t331.5 -100.5t126.5 -265.5q0 -121 -69 -210t-185 -118q127 -28 201 -119.5t74 -224.5q0 -180 -131 -287.5t-348 -107.5t-347.5 107.5t-130.5 287.5zM242 381q0 -127 93 -205 t245 -78q154 0 247 77.5t93 205.5q0 130 -92.5 207.5t-247.5 77.5q-152 0 -245 -77.5t-93 -207.5zM264 1036q0 -118 87 -189t229 -71q146 0 231.5 70.5t85.5 189.5q0 120 -86 192t-231 72q-143 0 -229.5 -72t-86.5 -192z" />
<glyph unicode="9" horiz-adv-x="1112" d="M57 926q0 210 131.5 350.5t348.5 140.5t349 -140.5t132 -350.5q0 -187 -105 -320l-411 -606h-164l309 444q-58 -10 -110 -10q-144 0 -255 67t-168 178t-57 247zM188 926q0 -160 95 -265.5t254 -105.5t254.5 106t95.5 265t-95.5 264.5t-254.5 105.5t-254 -105.5 t-95 -264.5z" />
<glyph unicode=":" horiz-adv-x="579" d="M164 113q0 53 36.5 90t88.5 37q53 0 90 -37t37 -90q0 -52 -37 -88.5t-90 -36.5t-89 36t-36 89zM164 827q0 51 36.5 88t88.5 37t89.5 -37t37.5 -88q0 -53 -37 -90t-90 -37q-52 0 -88.5 37t-36.5 90z" />
<glyph unicode=";" horiz-adv-x="598" d="M164 111q0 53 35 87.5t90 34.5q69 0 119.5 -58.5t50.5 -160.5q0 -116 -62 -186t-168 -70q-32 0 -59 6v70q40 -4 61 -4q45 0 76.5 24t40.5 66q13 35 8 100q-25 -28 -73 -28q-51 0 -85 32.5t-34 86.5zM164 825q0 53 36 89t89 36t90 -36.5t37 -88.5t-37 -88.5t-90 -36.5 t-89 36t-36 89z" />
<glyph unicode="&#x3c;" horiz-adv-x="1026" d="M113 604v98l800 351v-127l-616 -273l616 -272v-127z" />
<glyph unicode="=" horiz-adv-x="1093" d="M113 401v119h868v-119h-868zM113 764v119h868v-119h-868z" />
<glyph unicode="&#x3e;" horiz-adv-x="1026" d="M113 254v127l616 272l-616 273v127l800 -351v-98z" />
<glyph unicode="?" horiz-adv-x="972" d="M27 1012q0 211 123 333.5t335 122.5q203 0 314.5 -106t111.5 -275q0 -85 -30.5 -157t-71 -115.5t-98.5 -87.5l-101 -72q-60 -42 -83 -86t-23 -125v-38h-131v40q0 104 30 167t107 118l111 76q149 104 149 276q0 116 -77 189.5t-214 73.5q-144 0 -229.5 -88.5t-85.5 -245.5 h-137zM313 113q0 53 36 90t89 37q52 0 88.5 -37t36.5 -90t-36.5 -89t-88.5 -36q-54 0 -89.5 36t-35.5 89z" />
<glyph unicode="@" horiz-adv-x="1830" d="M82 434q0 252 105 441t298.5 291t450.5 102q181 0 328 -52t256 -154.5t169 -266t60 -375.5q0 -230 -76.5 -365t-232.5 -135q-125 0 -184.5 69t-73.5 218q-39 -86 -123.5 -140.5t-200.5 -54.5q-120 0 -215 58t-144.5 153t-49.5 207q0 176 115.5 300t295.5 124 q113 0 197.5 -53.5t124.5 -141.5v177h112v-578q0 -73 12 -123t34 -75.5t48 -35.5t60 -10q88 0 140 104.5t52 295.5q0 193 -51 339t-145 236.5t-222 135t-288 44.5q-342 0 -543 -199t-201 -538q0 -218 87 -382.5t257 -257.5t402 -93q252 0 446 125l45 -90 q-217 -135 -493 -135q-263 0 -457.5 107t-294.5 295t-100 433zM561 432q0 -133 85.5 -225t223.5 -92t225 92.5t87 224.5q0 133 -87.5 226.5t-224.5 93.5q-136 0 -222.5 -93t-86.5 -227z" />
<glyph unicode="A" horiz-adv-x="1181" d="M41 0l487 1434h125l488 -1434h-150l-84 258h-635l-82 -258h-149zM313 383h555l-278 864z" />
<glyph unicode="B" horiz-adv-x="1185" d="M174 0v1434h465q198 0 314 -98.5t116 -272.5q0 -141 -72 -226.5t-196 -109.5q122 -18 202 -109.5t80 -234.5q0 -178 -116.5 -280.5t-315.5 -102.5h-477zM311 123h338q138 0 217.5 72t79.5 200q0 120 -76 193.5t-192 73.5h-367v-539zM311 784h348q122 0 197.5 72t75.5 193 q0 124 -80 193t-219 69h-322v-527z" />
<glyph unicode="C" horiz-adv-x="1585" d="M82 717q0 156 51.5 292t144.5 237.5t233.5 159.5t309.5 58q276 0 452 -132.5t224 -348.5h-149q-48 165 -182 260.5t-345 95.5q-138 0 -251 -48t-188 -132t-116 -197.5t-41 -244.5t41 -245t116 -198t188 -132t251 -48q211 0 345 96t182 261h149q-48 -216 -224 -349 t-452 -133q-169 0 -309.5 58.5t-233.5 159.5t-144.5 237.5t-51.5 292.5z" />
<glyph unicode="D" horiz-adv-x="1406" d="M174 0v1434h428q139 0 258.5 -39.5t205.5 -107.5t147.5 -159t91.5 -195.5t30 -215.5t-30 -215.5t-91.5 -195.5t-147.5 -159t-205.5 -107.5t-258.5 -39.5h-428zM311 125h281q145 0 262.5 50t190.5 134t112 189t39 219t-39 219t-112 189t-190.5 134t-262.5 50h-281v-1184z " />
<glyph unicode="E" horiz-adv-x="1120" d="M174 0v1434h801v-125h-664v-535h664v-125h-664v-524h664v-125h-801z" />
<glyph unicode="F" horiz-adv-x="1093" d="M174 0v1434h801v-125h-664v-582h664v-125h-664v-602h-137z" />
<glyph unicode="G" horiz-adv-x="1687" d="M82 713q1 156 50 291.5t140 238.5t231 162t312 59q239 0 406 -117.5t206 -304.5h-149q-40 134 -163.5 215.5t-299.5 81.5q-141 0 -254 -48.5t-186 -133.5t-111.5 -198.5t-38.5 -245.5q0 -129 40 -241t114 -196.5t186.5 -133t249.5 -48.5q225 0 356.5 118.5t167.5 334.5 h-417v125h718v-125h-157q-41 -268 -212 -423t-456 -155q-170 0 -309.5 58t-231.5 159t-142 236t-50 291z" />
<glyph unicode="H" horiz-adv-x="1363" d="M174 0v1434h137v-660h742v660h137v-1434h-137v649h-742v-649h-137z" />
<glyph unicode="I" horiz-adv-x="485" d="M174 0v1434h137v-1434h-137z" />
<glyph unicode="J" horiz-adv-x="1099" d="M51 442h137q0 -163 91.5 -255.5t236.5 -92.5q143 0 227 96t84 263v981h138v-981q0 -224 -122 -354t-327 -130q-207 0 -336 126t-129 347z" />
<glyph unicode="K" horiz-adv-x="1196" d="M174 0v1434h137v-689l670 689h180l-715 -713l715 -721h-182l-668 688v-688h-137z" />
<glyph unicode="L" horiz-adv-x="1044" d="M174 0v1434h137v-1303h645v-131h-782z" />
<glyph unicode="M" horiz-adv-x="1667" d="M174 0v1434h133l527 -1241l526 1241h133v-1434h-133v1143l-471 -1143h-111l-471 1149v-1149h-133z" />
<glyph unicode="N" horiz-adv-x="1353" d="M174 0v1434h148l725 -1207v1207h131v-1434h-148l-723 1206v-1206h-133z" />
<glyph unicode="O" horiz-adv-x="1638" d="M82 717q0 149 51 284t143.5 238t233.5 164t309 61t309 -61t233.5 -164t143.5 -238t51 -284q0 -119 -32 -230t-95 -205t-151 -164t-206 -109.5t-253 -39.5t-253 39.5t-206 109.5t-151 164t-95 205t-32 230zM225 717q0 -125 40.5 -237.5t115 -198.5t188 -136.5t250.5 -50.5 t250.5 50.5t188 136.5t115 198.5t40.5 237.5q0 168 -69 308t-206.5 227t-318.5 87t-318.5 -87t-206.5 -227t-69 -308z" />
<glyph unicode="P" horiz-adv-x="1181" d="M174 0v1434h500q205 0 338 -138t133 -350q0 -213 -133.5 -351t-337.5 -138h-363v-457h-137zM311 582h355q149 0 245.5 103t96.5 261q0 157 -96.5 260t-245.5 103h-355v-727z" />
<glyph unicode="Q" horiz-adv-x="1638" d="M82 717q0 149 51 284t143.5 238t233.5 164t309 61t309 -61t233.5 -164t143.5 -238t51 -284q0 -131 -39.5 -251t-112 -217.5t-181.5 -167t-242 -95.5l170 -222l-121 -59l-203 264h-8q-135 0 -253 39.5t-206 109.5t-151 164t-95 205t-32 230zM225 717q0 -125 40.5 -237.5 t115 -198.5t188 -136.5t250.5 -50.5t250.5 50.5t188 136.5t115 198.5t40.5 237.5q0 168 -69 308t-206.5 227t-318.5 87t-318.5 -87t-206.5 -227t-69 -308z" />
<glyph unicode="R" horiz-adv-x="1236" d="M174 0v1434h500q205 0 338 -138t133 -350q0 -170 -88 -295.5t-234 -171.5l303 -479h-157l-287 457h-8h-363v-457h-137zM311 582h355q149 0 245.5 103t96.5 261q0 157 -96.5 260t-245.5 103h-355v-727z" />
<glyph unicode="S" horiz-adv-x="1148" d="M82 444h137q0 -161 101.5 -256.5t273.5 -95.5q155 0 240.5 72t85.5 201q0 105 -60.5 172t-187.5 102l-242 74q-305 83 -305 372q0 169 123.5 274t322.5 105q210 0 332.5 -115.5t122.5 -314.5h-137q0 147 -84.5 228t-237.5 81q-139 0 -221 -68t-82 -181q0 -107 64.5 -174 t201.5 -105l234 -70q293 -85 293 -378q0 -182 -125 -290t-338 -108q-238 0 -375 127t-137 348z" />
<glyph unicode="T" horiz-adv-x="1044" d="M16 1303v131h1014v-131h-440v-1303h-137v1303h-437z" />
<glyph unicode="U" horiz-adv-x="1290" d="M133 467v967h137v-961q0 -183 100.5 -281t274.5 -98t274.5 98t100.5 281v961h137v-967q0 -238 -138 -368t-374 -130t-374 130t-138 368z" />
<glyph unicode="V" horiz-adv-x="1138" d="M6 1434h148l415 -1223l416 1223h148l-496 -1434h-133z" />
<glyph unicode="W" horiz-adv-x="1931" d="M10 1434h146l395 -1211l360 1211h109l358 -1211l398 1211h145l-485 -1434h-107l-364 1198l-363 -1198h-106z" />
<glyph unicode="X" horiz-adv-x="1212" d="M51 0l477 717l-477 717h156l399 -605l400 605h155l-477 -717l477 -717h-155l-400 602l-399 -602h-156z" />
<glyph unicode="Y" horiz-adv-x="1110" d="M-10 1434h160l458 -725l371 725h151l-731 -1434h-151l289 567z" />
<glyph unicode="Z" horiz-adv-x="1157" d="M51 0l793 1309h-727v125h958l-786 -1309h794v-125h-1032z" />
<glyph unicode="[" horiz-adv-x="581" d="M174 -395v1896h393v-110h-272v-1678h272v-108h-393z" />
<glyph unicode="\" horiz-adv-x="872" d="M31 1505l108 45l703 -1628l-109 -45z" />
<glyph unicode="]" horiz-adv-x="581" d="M14 -287h273v1678h-273v110h394v-1896h-394v108z" />
<glyph unicode="^" horiz-adv-x="1101" d="M102 621l396 823h98l403 -823h-149l-301 659l-301 -659h-146z" />
<glyph unicode="_" horiz-adv-x="1044" d="M0 -344h1044v-96h-1044v96z" />
<glyph unicode="`" horiz-adv-x="1228" d="M70 1337l77 80l334 -293l-78 -77z" />
<glyph unicode="a" d="M82 465q0 212 128.5 351.5t340.5 139.5q127 0 223 -61t141 -166v203h129v-932h-129v201q-45 -101 -144 -163.5t-222 -62.5q-144 0 -251 65.5t-161.5 175.5t-54.5 249zM213 465q0 -161 96 -266t254 -105q164 0 261.5 107.5t97.5 263.5q0 158 -97 265.5t-262 107.5 q-159 0 -254.5 -105t-95.5 -268z" />
<glyph unicode="b" d="M164 0v1434h131v-705q46 105 146.5 166t228.5 61q201 0 328.5 -137t127.5 -354q0 -214 -131 -352t-333 -138q-123 0 -222 61.5t-145 164.5v-201h-131zM289 465q0 -162 101 -266.5t257 -104.5q152 0 250 105t98 266q0 163 -98 268t-250 105q-158 0 -258 -105t-100 -268z " />
<glyph unicode="c" horiz-adv-x="1056" d="M82 465q0 219 126 354t337 135q183 0 297 -91.5t133 -246.5h-133q-19 107 -96 163.5t-201 56.5q-153 0 -242.5 -100t-89.5 -271q0 -169 89.5 -270t242.5 -101q123 0 200.5 56t96.5 159h133q-19 -153 -133.5 -243.5t-296.5 -90.5q-210 0 -336.5 135.5t-126.5 354.5z" />
<glyph unicode="d" d="M82 465q0 212 128.5 351.5t340.5 139.5q127 0 223 -61t141 -166v705h129v-1434h-129v201q-45 -101 -144 -163.5t-222 -62.5q-144 0 -251 65.5t-161.5 175.5t-54.5 249zM213 465q0 -161 96 -266t254 -105q164 0 261.5 107.5t97.5 263.5q0 158 -97 265.5t-262 107.5 q-159 0 -254.5 -105t-95.5 -268z" />
<glyph unicode="e" horiz-adv-x="1054" d="M82 467q0 222 125 355.5t328 133.5q195 0 316.5 -121t121.5 -311q0 -22 -4 -88h-754q0 -158 88.5 -251t239.5 -93q104 0 178.5 45.5t105.5 124.5h134q-28 -128 -143.5 -207.5t-274.5 -79.5q-210 0 -335.5 134.5t-125.5 357.5zM215 541h629q-2 140 -84 224.5t-225 84.5 q-138 0 -224.5 -85.5t-95.5 -223.5z" />
<glyph unicode="f" horiz-adv-x="698" d="M47 819v113h205v188q0 81 19 142t47.5 95t68 55t73 27.5t70.5 6.5q83 0 138 -25v-114q-66 20 -107 20q-28 0 -49.5 -3t-47 -15.5t-42 -33t-28 -59t-11.5 -90.5v-194h285v-113h-285v-819h-131v819h-205z" />
<glyph unicode="g" d="M82 465q0 211 132.5 351t336.5 140q125 0 220.5 -60t141.5 -167v203h131v-926q0 -256 -157 -379q-114 -92 -322 -92q-212 0 -334 94q-59 44 -92.5 107t-34.5 133h136q8 -96 92 -158.5t233 -62.5q171 0 259.5 88t88.5 262v203q-46 -104 -144.5 -165t-219.5 -61 q-208 0 -337.5 140t-129.5 350zM213 465q0 -161 98.5 -266t251.5 -105q159 0 259 106.5t100 264.5q0 160 -99.5 266.5t-259.5 106.5q-153 0 -251.5 -105.5t-98.5 -267.5z" />
<glyph unicode="h" horiz-adv-x="1157" d="M170 0v1434h131v-715q34 108 123.5 172.5t224.5 64.5q176 0 265.5 -101t89.5 -294v-561h-132v510q0 167 -65 249.5t-201 82.5q-149 0 -227 -100t-78 -267v-475h-131z" />
<glyph unicode="i" horiz-adv-x="458" d="M109 1241q0 53 33.5 88t86.5 35q54 0 88.5 -35t34.5 -88q0 -51 -35 -86t-88 -35t-86.5 34.5t-33.5 86.5zM164 0v932h131v-932h-131z" />
<glyph unicode="j" horiz-adv-x="464" d="M-59 -307q52 -21 106 -21q60 0 91.5 41t31.5 117v1102h131v-1135q0 -119 -60.5 -184.5t-170.5 -65.5q-79 0 -129 23v123zM115 1241q0 53 34 88t87 35q54 0 88 -35t34 -88q0 -52 -34.5 -86.5t-87.5 -34.5t-87 34.5t-34 86.5z" />
<glyph unicode="k" horiz-adv-x="1007" d="M164 0v1434h131v-945l479 443h172l-504 -455l504 -477h-178l-473 451v-451h-131z" />
<glyph unicode="l" horiz-adv-x="458" d="M164 0v1434h131v-1434h-131z" />
<glyph unicode="m" horiz-adv-x="1701" d="M164 0v932h131v-209q26 97 102 165t197 68t201 -59t104 -174q29 101 114 167t201 66q164 0 249 -93.5t85 -272.5v-590h-129v563q0 144 -62.5 211.5t-170.5 67.5q-126 0 -195 -96.5t-69 -268.5v-477h-131v537q0 305 -234 305q-127 0 -194.5 -99.5t-67.5 -265.5v-477h-131z " />
<glyph unicode="n" horiz-adv-x="1153" d="M164 0v932h131v-213q35 109 124.5 173t225.5 64q176 0 265 -101t89 -294v-561h-131v510q0 167 -65 249.5t-201 82.5q-150 0 -228.5 -100t-78.5 -267v-475h-131z" />
<glyph unicode="o" horiz-adv-x="1124" d="M82 467q0 136 57.5 246.5t167.5 176.5t254 66q217 0 349 -140.5t132 -348.5q0 -210 -132 -351t-349 -141q-144 0 -254 66.5t-167.5 177.5t-57.5 248zM213 465q0 -158 94.5 -263.5t253.5 -105.5q160 0 255 105.5t95 265.5t-95 265.5t-255 105.5q-159 0 -253.5 -106 t-94.5 -267z" />
<glyph unicode="p" d="M164 -440v1372h131v-203q46 105 146.5 166t228.5 61q201 0 328.5 -137t127.5 -354q0 -214 -131 -352t-333 -138q-123 0 -222 61.5t-145 164.5v-641h-131zM289 465q0 -162 101 -266.5t257 -104.5q152 0 250 105t98 266q0 163 -98 268t-250 105q-158 0 -258 -105t-100 -268 z" />
<glyph unicode="q" d="M82 465q0 212 128.5 351.5t340.5 139.5q127 0 223 -61t141 -166v203h129v-1372h-129v641q-45 -101 -144 -163.5t-222 -62.5q-144 0 -251 65.5t-161.5 175.5t-54.5 249zM213 465q0 -161 96 -266t254 -105q164 0 261.5 107.5t97.5 263.5q0 158 -97 265.5t-262 107.5 q-159 0 -254.5 -105t-95.5 -268z" />
<glyph unicode="r" horiz-adv-x="727" d="M164 0v932h131v-246q31 131 113.5 197.5t187.5 66.5q57 0 84 -8v-121q-44 6 -88 6q-77 0 -136.5 -37t-93.5 -99.5t-50.5 -135t-16.5 -152.5v-403h-131z" />
<glyph unicode="s" horiz-adv-x="905" d="M82 272h131q0 -80 68.5 -134t187.5 -54q97 0 154 42.5t57 117.5q0 59 -35 96t-123 59l-194 50q-217 55 -217 249q0 117 95 187.5t245 70.5q162 0 255 -72t93 -198h-129q-2 77 -62.5 121.5t-165.5 44.5q-88 0 -145 -39.5t-57 -110.5q0 -109 157 -149l197 -53 q108 -28 163.5 -92t55.5 -158q0 -131 -94.5 -203t-255.5 -72q-171 0 -276 85.5t-105 211.5z" />
<glyph unicode="t" horiz-adv-x="708" d="M45 819v113h182v311h129v-311h258v-113h-258v-489q0 -71 12 -116.5t36.5 -67.5t51 -29.5t66.5 -7.5q78 0 125 12v-117q-56 -16 -151 -16q-42 0 -74 4.5t-70.5 23.5t-64 51t-43 92.5t-17.5 143.5v516h-182z" />
<glyph unicode="u" horiz-adv-x="1153" d="M154 371v561h131v-533q0 -144 64.5 -225.5t203.5 -81.5q78 0 138.5 31t95 82t52 110t17.5 123v494h131v-932h-131v211q-35 -103 -124.5 -169.5t-213.5 -66.5q-166 0 -265 101.5t-99 294.5z" />
<glyph unicode="v" horiz-adv-x="968" d="M10 932h142l331 -756l334 756h141l-419 -932h-109z" />
<glyph unicode="w" horiz-adv-x="1486" d="M20 932h144l256 -746l252 746h141l252 -746l258 746h143l-346 -932h-114l-265 770l-262 -770h-112z" />
<glyph unicode="x" horiz-adv-x="962" d="M47 0l356 467l-354 465h162l268 -367l273 367h161l-356 -465l358 -467h-161l-275 373l-272 -373h-160z" />
<glyph unicode="y" horiz-adv-x="1161" d="M154 -131h133q3 -101 70 -161t212 -60q297 0 297 329v230q-41 -102 -131 -166t-217 -64q-364 0 -364 414v541h131v-516q0 -157 61.5 -238.5t212.5 -81.5q75 0 135.5 31.5t97 83t55.5 114.5t19 130v477h131v-963q0 -227 -131 -340q-111 -94 -295 -94q-199 0 -313 94 q-101 87 -104 240z" />
<glyph unicode="z" horiz-adv-x="892" d="M41 0l590 819h-553v113h780l-592 -819h578v-113h-803z" />
<glyph unicode="{" horiz-adv-x="632" d="M51 498v110q37 0 78.5 19t76 65t34.5 109v418q0 92 42 158.5t101.5 96t126.5 29.5h108v-108h-92q-78 0 -122 -55.5t-44 -143.5v-412q0 -55 -18 -98.5t-47.5 -69.5t-57 -40.5t-57.5 -22.5q30 -8 57.5 -22.5t57 -40.5t47.5 -69.5t18 -98.5v-412q0 -88 44 -143.5t122 -55.5 h92v-108h-108q-67 0 -126.5 29.5t-101.5 96t-42 158.5v418q0 63 -34.5 109t-76 65t-78.5 19z" />
<glyph unicode="|" horiz-adv-x="454" d="M174 -395v1896h107v-1896h-107z" />
<glyph unicode="}" horiz-adv-x="632" d="M16 -289h90q79 0 122.5 55t43.5 144v412q0 55 18 98.5t48 69.5t58 40.5t59 22.5q-31 8 -59 22.5t-58 40.5t-48 69.5t-18 98.5v412q0 89 -43.5 144t-122.5 55h-90v108h107q107 0 188.5 -74.5t81.5 -209.5v-418q0 -63 34.5 -109t76 -65t78.5 -19v-110q-37 0 -78.5 -19 t-76 -65t-34.5 -109v-418q0 -135 -81.5 -209.5t-188.5 -74.5h-107v108z" />
<glyph unicode="~" horiz-adv-x="1103" d="M102 481v123q44 53 100 78t111 25q84 0 242 -66q13 -6 46.5 -20t51 -21t43 -16t45 -13t35.5 -4q110 0 225 111v-121q-47 -52 -106.5 -80t-120.5 -28q-45 0 -95.5 17t-133.5 54q-140 68 -238 68q-51 0 -105.5 -29.5t-99.5 -77.5z" />
<glyph unicode="&#xa1;" horiz-adv-x="520" d="M135 881q0 53 35.5 89t87.5 36q54 0 90.5 -36t36.5 -89t-36.5 -90t-90.5 -37q-52 0 -87.5 37t-35.5 90zM195 -440v1028h131v-1028h-131z" />
<glyph unicode="&#xa2;" horiz-adv-x="1056" d="M82 696q0 203 111.5 336t300.5 150v211h104v-211q160 -13 260 -103t117 -233h-133q-19 106 -96 162.5t-201 56.5q-153 0 -242.5 -100t-89.5 -269q0 -171 89.5 -271.5t242.5 -100.5q123 0 200.5 56t96.5 159h133q-17 -141 -117 -230t-260 -102v-207h-104v207 q-189 17 -300.5 151t-111.5 338z" />
<glyph unicode="&#xa3;" horiz-adv-x="1052" d="M78 707v102h137v166q0 219 111 330.5t303 111.5q188 0 295.5 -105t107.5 -284h-139q0 129 -68 202t-198 73q-140 0 -207.5 -84t-67.5 -256v-154h381v-102h-381v-211q0 -255 -116 -371h733v-125h-887v96q63 60 98 148t35 227v236h-137z" />
<glyph unicode="&#xa4;" horiz-adv-x="1191" d="M72 322l145 145q-94 123 -94 291t94 291l-143 145l82 84l145 -145q125 100 295 100q172 0 297 -98l143 143l84 -84l-143 -143q98 -124 98 -293t-98 -293l141 -143l-82 -84l-143 143q-123 -96 -297 -96q-170 0 -295 98l-145 -145zM254 758q0 -149 95 -252t247 -103 q156 0 252 103t96 252t-96 252.5t-252 103.5q-152 0 -247 -103.5t-95 -252.5z" />
<glyph unicode="&#xa5;" horiz-adv-x="1101" d="M31 1393h155l365 -721l364 721h156l-446 -834h317v-94h-321v-178h321v-97h-321v-190h-140v190h-323v97h323v178h-323v94h319z" />
<glyph unicode="&#xa6;" horiz-adv-x="454" d="M174 -395v878h107v-878h-107zM174 659v842h107v-842h-107z" />
<glyph unicode="&#xa7;" horiz-adv-x="1107" d="M106 -92h142q0 -116 75 -184t226 -68q132 0 207 56t75 163q0 61 -24.5 109.5t-66.5 80t-96 57t-114 46.5l-120 42t-114 49t-96 63t-66.5 88.5t-24.5 121.5q0 197 213 283q-191 107 -191 309q0 159 117 251.5t309 92.5q217 0 330.5 -102t113.5 -270h-145q0 118 -74.5 187 t-222.5 69q-132 0 -207.5 -58t-75.5 -166q0 -77 40 -133.5t103.5 -90t140 -60.5t153.5 -55.5t140.5 -64.5t103.5 -98t40 -147q0 -194 -211 -286q191 -107 191 -314q0 -164 -116.5 -252t-313.5 -88q-215 0 -328 101.5t-113 267.5zM246 541q0 -37 11.5 -67.5t36.5 -54.5 t51.5 -42t69 -36t75.5 -30.5t85 -30.5t84 -30q203 70 203 221q0 32 -10 60t-26.5 48.5t-43.5 40t-53 33t-64.5 28.5t-69 25.5t-75 25.5t-74.5 26q-96 -31 -148 -87t-52 -130z" />
<glyph unicode="&#xa8;" horiz-adv-x="1228" d="M143 1235q0 51 33.5 85t81.5 34q52 0 85.5 -34t33.5 -85q0 -48 -34 -81.5t-85 -33.5q-47 0 -81 34t-34 81zM547 1235q0 51 33.5 85t81.5 34q51 0 84.5 -34t33.5 -85q0 -48 -34 -81.5t-84 -33.5q-47 0 -81 34t-34 81z" />
<glyph unicode="&#xa9;" horiz-adv-x="1636" d="M82 717q0 157 51.5 294t145 238.5t233 160t307.5 58.5t307 -58.5t232.5 -160t144.5 -238.5t51 -294t-51 -294t-144.5 -239t-233 -160.5t-306.5 -58.5q-168 0 -307.5 59t-233 160.5t-145 238.5t-51.5 294zM193 717q0 -135 43.5 -254.5t123 -208.5t198.5 -141t261 -52 q188 0 332 89.5t218.5 237.5t74.5 329t-74.5 329t-218.5 237t-332 89q-142 0 -261 -51.5t-198.5 -141t-123 -208.5t-43.5 -254zM397 717q0 116 49 213t148.5 158t230.5 61q156 0 254 -77.5t119 -201.5h-98q-19 87 -91 140t-184 53q-154 0 -243.5 -100.5t-89.5 -245.5 t89.5 -245.5t243.5 -100.5q112 0 184 52.5t91 137.5h98q-21 -123 -119 -199.5t-254 -76.5q-131 0 -230.5 61t-148.5 158t-49 213z" />
<glyph unicode="&#xaa;" horiz-adv-x="749" d="M51 1090q0 122 78 204t203 82q77 0 134.5 -36t84.5 -95v115h108v-539h-108v113q-27 -58 -85 -92.5t-136 -34.5q-125 0 -202 81t-77 202zM160 1090q0 -80 54.5 -136.5t141.5 -56.5q89 0 144 56.5t55 136.5q0 82 -54.5 138t-144.5 56q-87 0 -141.5 -56t-54.5 -138z" />
<glyph unicode="&#xab;" horiz-adv-x="985" d="M16 535l418 385l78 -78l-334 -307l334 -308l-78 -77zM451 535l419 385l78 -78l-334 -307l334 -308l-78 -77z" />
<glyph unicode="&#xac;" horiz-adv-x="1032" d="M113 725v119h807v-418h-132v299h-675z" />
<glyph unicode="&#xad;" horiz-adv-x="843" d="M113 473v119h616v-119h-616z" />
<glyph unicode="&#xae;" d="M82 936q0 148 62 268.5t182 192t278 71.5t278 -71.5t182 -192t62 -268.5q0 -149 -62 -269.5t-182 -192t-278 -71.5t-278 71.5t-182 192t-62 269.5zM162 936q0 -198 121 -331.5t321 -133.5q134 0 236.5 63t155.5 168t53 234q0 128 -53 232.5t-155.5 167.5t-236.5 63 q-200 0 -321 -133.5t-121 -329.5zM422 655v578h213q84 0 137 -56.5t53 -136.5q0 -64 -36.5 -113.5t-98.5 -66.5l131 -205h-78l-125 197h-129v-197h-67zM492 913h139q56 0 90.5 36.5t34.5 90.5q0 55 -34.5 93t-90.5 38h-139v-258z" />
<glyph unicode="&#xaf;" horiz-adv-x="1228" d="M158 1135v108h649v-108h-649z" />
<glyph unicode="&#xb0;" horiz-adv-x="739" d="M61 1110q0 130 88.5 218.5t221.5 88.5q131 0 218 -88.5t87 -218.5t-87 -218.5t-218 -88.5q-133 0 -221.5 88.5t-88.5 218.5zM168 1110q0 -87 56 -146t147 -59q89 0 143.5 59t54.5 146t-54.5 145t-143.5 58q-92 0 -147.5 -58t-55.5 -145z" />
<glyph unicode="&#xb1;" horiz-adv-x="1032" d="M113 315v117h807v-117h-807zM113 795v120h338v242h131v-242h338v-120h-338v-240h-131v240h-338z" />
<glyph unicode="&#xb2;" horiz-adv-x="763" d="M80 819q0 141 48.5 222.5t166.5 138.5l137 65q119 53 119 168q0 61 -42.5 98t-111.5 37q-85 0 -132.5 -48t-47.5 -134h-117q0 124 80.5 199t214.5 75q126 0 200.5 -60t74.5 -163q0 -162 -164 -239l-135 -66q-77 -37 -111.5 -81.5t-40.5 -115.5h451v-96h-590z" />
<glyph unicode="&#xb3;" horiz-adv-x="780" d="M88 1061h117q0 -77 49 -120.5t135 -43.5q82 0 130 40t48 107q0 69 -47 108.5t-133 39.5h-76v90h76q79 0 123.5 36t44.5 101q0 60 -45 96.5t-119 36.5q-78 0 -125 -39.5t-47 -105.5h-117q0 105 79 169t212 64q126 0 202.5 -58.5t76.5 -156.5q0 -153 -170 -188 q79 -6 130.5 -62.5t51.5 -136.5q0 -105 -81.5 -169t-215.5 -64q-141 0 -220 68t-79 188z" />
<glyph unicode="&#xb4;" horiz-adv-x="1228" d="M203 1124l334 293l75 -80l-333 -290z" />
<glyph unicode="&#xb5;" horiz-adv-x="1163" d="M164 -440v1372h131v-533q0 -144 64.5 -225.5t203.5 -81.5q78 0 138.5 31t95 82t52 110t17.5 123v494h131v-932h-131v211q-35 -103 -124.5 -169.5t-213.5 -66.5q-159 0 -233 109v-524h-131z" />
<glyph unicode="&#xb6;" horiz-adv-x="1341" d="M102 1065q0 74 19.5 135.5t50.5 102.5t75.5 72t89 48t97 28t93.5 14t85 3h627v-112h-109v-1659h-124v1657h-336v-1657h-125v977q-198 0 -320.5 99.5t-122.5 291.5z" />
<glyph unicode="&#xb7;" horiz-adv-x="579" d="M164 639q0 53 36.5 90t88.5 37q53 0 90 -37t37 -90q0 -51 -37.5 -88t-89.5 -37t-88.5 37t-36.5 88z" />
<glyph unicode="&#xb8;" horiz-adv-x="1228" d="M117 -297h78q2 -34 27 -55t65 -21q45 0 71.5 28.5t26.5 80.5q0 48 -25 77t-71 29q-60 0 -90 -49h-68v207h78v-137q12 18 40.5 29.5t61.5 11.5q66 0 111 -46.5t45 -121.5q0 -77 -48.5 -126.5t-133.5 -49.5q-71 0 -117.5 39.5t-50.5 103.5z" />
<glyph unicode="&#xb9;" horiz-adv-x="544" d="M72 1397v88q115 0 155.5 31t40.5 110h99v-807h-111v578h-184z" />
<glyph unicode="&#xba;" horiz-adv-x="710" d="M53 1092q0 123 82 203.5t219 80.5q138 0 221.5 -80.5t83.5 -203.5t-83.5 -204t-221.5 -81q-137 0 -219 81t-82 204zM158 1092q0 -82 54.5 -137.5t141.5 -55.5q90 0 143.5 55.5t53.5 137.5t-53.5 137t-143.5 55q-87 0 -141.5 -55.5t-54.5 -136.5z" />
<glyph unicode="&#xbb;" horiz-adv-x="985" d="M37 227l334 308l-334 307l76 78l419 -385l-419 -385zM471 227l336 308l-336 307l78 78l420 -385l-420 -385z" />
<glyph unicode="&#xbc;" horiz-adv-x="1611" d="M72 1163v88q115 0 155.5 31.5t40.5 110.5h99v-807h-111v577h-184zM156 29l966 1396l90 -57l-966 -1397zM946 260v547h113v-447h237v238h113v-238h131v-100h-131v-262h-113v262h-350z" />
<glyph unicode="&#xbd;" horiz-adv-x="1568" d="M72 1163v88q115 0 155.5 31.5t40.5 110.5h99v-807h-111v577h-184zM156 29l966 1396l90 -57l-966 -1397zM885 0q0 141 48.5 222t166.5 138l137 66q119 53 119 168q0 61 -42.5 98t-111.5 37q-85 0 -132.5 -48t-47.5 -134h-117q0 124 80.5 199t214.5 75q126 0 200.5 -60 t74.5 -163q0 -163 -164 -240l-135 -65q-77 -37 -111.5 -81.5t-40.5 -115.5h451v-96h-590z" />
<glyph unicode="&#xbe;" horiz-adv-x="1810" d="M88 827h117q0 -76 49 -119.5t135 -43.5q82 0 130 40t48 107q0 69 -47 108t-133 39h-76v91h76q79 0 123.5 36t44.5 101q0 60 -45 96.5t-119 36.5q-78 0 -125 -39.5t-47 -105.5h-117q0 105 79 169t212 64q126 0 202.5 -58.5t76.5 -156.5q0 -153 -170 -188 q79 -6 130.5 -62.5t51.5 -136.5q0 -105 -81.5 -169.5t-215.5 -64.5q-141 0 -220 68t-79 188zM354 29l967 1396l90 -57l-967 -1397zM1143 260v547h112v-447h238v238h113v-238h131v-100h-131v-262h-113v262h-350z" />
<glyph unicode="&#xbf;" horiz-adv-x="972" d="M61 -70q0 123 54.5 208t146.5 153l100 71q61 43 84 86.5t23 124.5v39h131v-41q0 -105 -29.5 -167t-107.5 -117l-111 -78q-149 -104 -149 -275q0 -116 77 -189t214 -73q144 0 229.5 88.5t85.5 245.5h137q0 -212 -122.5 -334.5t-336.5 -122.5q-203 0 -314.5 106t-111.5 275 zM410 903q0 53 36.5 90t90.5 37q52 0 87 -37t35 -90q0 -52 -35 -88.5t-87 -36.5q-53 0 -90 37t-37 88z" />
<glyph unicode="&#xc0;" horiz-adv-x="1181" d="M41 0l487 1434h125l488 -1434h-150l-84 258h-635l-82 -258h-149zM313 383h555l-278 864zM328 1733l49 92l467 -236l-49 -94z" />
<glyph unicode="&#xc1;" horiz-adv-x="1181" d="M41 0l487 1434h125l488 -1434h-150l-84 258h-635l-82 -258h-149zM313 383h555l-278 864zM338 1589l467 236l49 -92l-467 -238z" />
<glyph unicode="&#xc2;" horiz-adv-x="1181" d="M41 0l487 1434h125l488 -1434h-150l-84 258h-635l-82 -258h-149zM313 383h555l-278 864zM324 1577l264 231l264 -231l-70 -66l-194 175l-195 -175z" />
<glyph unicode="&#xc3;" horiz-adv-x="1181" d="M41 0l487 1434h125l488 -1434h-150l-84 258h-635l-82 -258h-149zM217 1616q89 149 211 149q49 0 108.5 -31.5t114.5 -62.5t94 -31q95 0 160 101l62 -58q-82 -143 -213 -147q-56 -3 -115 28.5t-112.5 64t-94.5 32.5q-27 0 -47.5 -5t-50 -28.5t-58.5 -66.5zM313 383h555 l-278 864z" />
<glyph unicode="&#xc4;" horiz-adv-x="1181" d="M41 0l487 1434h125l488 -1434h-150l-84 258h-635l-82 -258h-149zM233 1665q0 51 33.5 85t83.5 34t84.5 -34t34.5 -85q0 -47 -35 -81t-84 -34t-83 33.5t-34 81.5zM313 383h555l-278 864zM713 1665q0 51 33 85t83 34t84.5 -34t34.5 -85q0 -47 -35 -81t-84 -34t-82.5 33.5 t-33.5 81.5z" />
<glyph unicode="&#xc5;" horiz-adv-x="1181" d="M41 0l467 1374q-71 27 -115.5 88t-44.5 137q0 101 71 170.5t173 69.5t175 -70.5t73 -169.5q0 -77 -46.5 -138.5t-119.5 -86.5l467 -1374h-150l-84 258h-635l-82 -258h-149zM313 383h555l-278 864zM438 1599q0 -64 44.5 -108.5t109.5 -44.5q66 0 111 44t45 109 q0 66 -44.5 111t-111.5 45q-64 0 -109 -45.5t-45 -110.5z" />
<glyph unicode="&#xc6;" horiz-adv-x="1675" d="M31 0l723 1434h778v-125h-582v-535h582v-125h-582v-524h582v-125h-719v262h-504l-129 -262h-149zM369 383h444v907z" />
<glyph unicode="&#xc7;" horiz-adv-x="1585" d="M82 717q0 156 51.5 292t144.5 237.5t233.5 159.5t309.5 58q276 0 452 -132.5t224 -348.5h-149q-48 165 -182 260.5t-345 95.5q-138 0 -251 -48t-188 -132t-116 -197.5t-41 -244.5t41 -245t116 -198t188 -132t251 -48q211 0 345 96t182 261h149q-46 -208 -212.5 -340 t-426.5 -142v-106q12 18 41 29.5t62 11.5q66 0 110.5 -46.5t44.5 -121.5q0 -77 -48.5 -126.5t-133.5 -49.5q-71 0 -117.5 39.5t-50.5 103.5h78q2 -34 27 -55t65 -21q45 0 71.5 28.5t26.5 80.5q0 48 -25 77t-71 29q-60 0 -90 -49h-68v176q-213 10 -373 112.5t-242.5 268 t-82.5 367.5z" />
<glyph unicode="&#xc8;" horiz-adv-x="1120" d="M174 0v1434h801v-125h-664v-535h664v-125h-664v-524h664v-125h-801zM326 1733l49 92l467 -236l-49 -94z" />
<glyph unicode="&#xc9;" horiz-adv-x="1120" d="M174 0v1434h801v-125h-664v-535h664v-125h-664v-524h664v-125h-801zM334 1589l467 236l49 -92l-467 -238z" />
<glyph unicode="&#xca;" horiz-adv-x="1120" d="M174 0v1434h801v-125h-664v-535h664v-125h-664v-524h664v-125h-801zM322 1577l264 231l264 -231l-70 -66l-194 175l-195 -175z" />
<glyph unicode="&#xcb;" horiz-adv-x="1120" d="M174 0v1434h801v-125h-664v-535h664v-125h-664v-524h664v-125h-801zM231 1665q0 51 33.5 85t83.5 34t84.5 -34t34.5 -85q0 -47 -35 -81t-84 -34t-83 33.5t-34 81.5zM711 1665q0 51 33 85t83 34t84.5 -34t34.5 -85q0 -47 -35 -81t-84 -34t-82.5 33.5t-33.5 81.5z" />
<glyph unicode="&#xcc;" horiz-adv-x="485" d="M66 1700l61 92l291 -174l-60 -92zM174 0v1434h137v-1434h-137z" />
<glyph unicode="&#xcd;" horiz-adv-x="485" d="M59 1614l308 188l61 -90l-309 -188zM174 0v1434h137v-1434h-137z" />
<glyph unicode="&#xce;" horiz-adv-x="485" d="M27 1604l215 186l217 -186l-66 -72l-151 135l-150 -135zM174 0v1434h137v-1434h-137z" />
<glyph unicode="&#xcf;" horiz-adv-x="485" d="M2 1665q0 49 32 80t79 31q48 0 79 -31t31 -80t-31 -80t-79 -31q-47 0 -79 31t-32 80zM174 0v1434h137v-1434h-137zM260 1665q0 49 32 80t79 31q48 0 80 -31t32 -80t-32 -80t-80 -31q-47 0 -79 31t-32 80z" />
<glyph unicode="&#xd0;" horiz-adv-x="1406" d="M10 664v118h164v652h428q139 0 258.5 -39.5t205.5 -107.5t147.5 -159t91.5 -195.5t30 -215.5t-30 -215.5t-91.5 -195.5t-147.5 -159t-205.5 -107.5t-258.5 -39.5h-428v664h-164zM311 125h281q145 0 262.5 50t190.5 134t112 189t39 219t-39 219t-112 189t-190.5 134 t-262.5 50h-281v-527h295v-118h-295v-539z" />
<glyph unicode="&#xd1;" horiz-adv-x="1353" d="M174 0v1434h148l725 -1207v1207h131v-1434h-148l-723 1206v-1206h-133zM303 1616q89 149 211 149q49 0 108.5 -31.5t114.5 -62.5t94 -31q95 0 160 101l62 -58q-82 -143 -213 -147q-56 -3 -115 28.5t-112.5 64t-94.5 32.5q-27 0 -47.5 -5t-50 -28.5t-58.5 -66.5z" />
<glyph unicode="&#xd2;" horiz-adv-x="1638" d="M82 717q0 149 51 284t143.5 238t233.5 164t309 61t309 -61t233.5 -164t143.5 -238t51 -284q0 -119 -32 -230t-95 -205t-151 -164t-206 -109.5t-253 -39.5t-253 39.5t-206 109.5t-151 164t-95 205t-32 230zM225 717q0 -125 40.5 -237.5t115 -198.5t188 -136.5t250.5 -50.5 t250.5 50.5t188 136.5t115 198.5t40.5 237.5q0 168 -69 308t-206.5 227t-318.5 87t-318.5 -87t-206.5 -227t-69 -308zM555 1733l49 92l467 -236l-49 -94z" />
<glyph unicode="&#xd3;" horiz-adv-x="1638" d="M82 717q0 149 51 284t143.5 238t233.5 164t309 61t309 -61t233.5 -164t143.5 -238t51 -284q0 -119 -32 -230t-95 -205t-151 -164t-206 -109.5t-253 -39.5t-253 39.5t-206 109.5t-151 164t-95 205t-32 230zM225 717q0 -125 40.5 -237.5t115 -198.5t188 -136.5t250.5 -50.5 t250.5 50.5t188 136.5t115 198.5t40.5 237.5q0 168 -69 308t-206.5 227t-318.5 87t-318.5 -87t-206.5 -227t-69 -308zM565 1589l467 236l49 -92l-467 -238z" />
<glyph unicode="&#xd4;" horiz-adv-x="1638" d="M82 717q0 149 51 284t143.5 238t233.5 164t309 61t309 -61t233.5 -164t143.5 -238t51 -284q0 -119 -32 -230t-95 -205t-151 -164t-206 -109.5t-253 -39.5t-253 39.5t-206 109.5t-151 164t-95 205t-32 230zM225 717q0 -125 40.5 -237.5t115 -198.5t188 -136.5t250.5 -50.5 t250.5 50.5t188 136.5t115 198.5t40.5 237.5q0 168 -69 308t-206.5 227t-318.5 87t-318.5 -87t-206.5 -227t-69 -308zM551 1577l264 231l264 -231l-69 -66l-195 175l-194 -175z" />
<glyph unicode="&#xd5;" horiz-adv-x="1638" d="M82 717q0 149 51 284t143.5 238t233.5 164t309 61t309 -61t233.5 -164t143.5 -238t51 -284q0 -119 -32 -230t-95 -205t-151 -164t-206 -109.5t-253 -39.5t-253 39.5t-206 109.5t-151 164t-95 205t-32 230zM225 717q0 -125 40.5 -237.5t115 -198.5t188 -136.5t250.5 -50.5 t250.5 50.5t188 136.5t115 198.5t40.5 237.5q0 168 -69 308t-206.5 227t-318.5 87t-318.5 -87t-206.5 -227t-69 -308zM444 1616q89 149 211 149q39 0 85.5 -19.5t81.5 -43t77 -43t74 -19.5q95 0 160 101l61 -58q-82 -143 -213 -147q-56 -3 -115 28.5t-112.5 64t-94.5 32.5 q-20 0 -35.5 -3t-35.5 -12.5t-41 -30.5t-43 -54z" />
<glyph unicode="&#xd6;" horiz-adv-x="1638" d="M82 717q0 149 51 284t143.5 238t233.5 164t309 61t309 -61t233.5 -164t143.5 -238t51 -284q0 -119 -32 -230t-95 -205t-151 -164t-206 -109.5t-253 -39.5t-253 39.5t-206 109.5t-151 164t-95 205t-32 230zM225 717q0 -125 40.5 -237.5t115 -198.5t188 -136.5t250.5 -50.5 t250.5 50.5t188 136.5t115 198.5t40.5 237.5q0 168 -69 308t-206.5 227t-318.5 87t-318.5 -87t-206.5 -227t-69 -308zM463 1665q0 51 33.5 85t83.5 34t84 -34t34 -85q0 -47 -34.5 -81t-83.5 -34t-83 33.5t-34 81.5zM942 1665q0 51 33.5 85t83.5 34t84.5 -34t34.5 -85 q0 -47 -35 -81t-84 -34t-83 33.5t-34 81.5z" />
<glyph unicode="&#xd7;" horiz-adv-x="976" d="M113 352l293 291l-293 293l84 84l290 -291l293 291l84 -82l-291 -295l291 -291l-84 -84l-293 291l-288 -289z" />
<glyph unicode="&#xd8;" horiz-adv-x="1638" d="M82 717q0 149 51 284t143.5 238t233.5 164t309 61q134 0 246 -37l65 154l95 -41l-66 -151q188 -91 292.5 -272t104.5 -400q0 -119 -32 -230t-95 -205t-151 -164t-206 -109.5t-253 -39.5q-131 0 -250 39l-69 -162l-97 43l68 158q-184 94 -286.5 273.5t-102.5 396.5z M225 717q0 -176 78 -323.5t219 -225.5l492 1143q-92 28 -195 28q-181 0 -318.5 -87t-206.5 -227t-69 -308zM618 125q95 -31 201 -31q137 0 250.5 50.5t188 136.5t115 198.5t40.5 237.5q0 178 -80 326.5t-225 226.5z" />
<glyph unicode="&#xd9;" horiz-adv-x="1290" d="M133 467v967h137v-961q0 -183 100.5 -281t274.5 -98t274.5 98t100.5 281v961h137v-967q0 -238 -138 -368t-374 -130t-374 130t-138 368zM381 1733l49 92l467 -236l-49 -94z" />
<glyph unicode="&#xda;" horiz-adv-x="1290" d="M133 467v967h137v-961q0 -183 100.5 -281t274.5 -98t274.5 98t100.5 281v961h137v-967q0 -238 -138 -368t-374 -130t-374 130t-138 368zM391 1589l467 236l49 -92l-467 -238z" />
<glyph unicode="&#xdb;" horiz-adv-x="1290" d="M133 467v967h137v-961q0 -183 100.5 -281t274.5 -98t274.5 98t100.5 281v961h137v-967q0 -238 -138 -368t-374 -130t-374 130t-138 368zM377 1577l264 231l264 -231l-69 -66l-195 175l-195 -175z" />
<glyph unicode="&#xdc;" horiz-adv-x="1290" d="M133 467v967h137v-961q0 -183 100.5 -281t274.5 -98t274.5 98t100.5 281v961h137v-967q0 -238 -138 -368t-374 -130t-374 130t-138 368zM287 1665q0 51 33 85t83 34t84.5 -34t34.5 -85q0 -47 -35 -81t-84 -34t-82.5 33.5t-33.5 81.5zM766 1665q0 51 33.5 85t83.5 34 t84 -34t34 -85q0 -47 -34.5 -81t-83.5 -34t-83 33.5t-34 81.5z" />
<glyph unicode="&#xdd;" horiz-adv-x="1110" d="M-10 1434h160l458 -725l371 725h151l-731 -1434h-151l289 567zM328 1589l467 236l49 -92l-467 -238z" />
<glyph unicode="&#xde;" horiz-adv-x="1181" d="M174 0v1434h137v-242h363q107 0 197 -38t150 -103.5t93 -151.5t33 -182t-33 -182t-93 -150.5t-150 -102.5t-197 -38h-363v-244h-137zM311 369h357q153 0 247.5 101.5t94.5 246.5q0 147 -94.5 248.5t-247.5 101.5h-357v-698z" />
<glyph unicode="&#xdf;" horiz-adv-x="1155" d="M160 0v1028q0 190 115.5 313t314.5 123q202 0 315 -104t113 -275q0 -134 -80.5 -227t-212.5 -110q148 -15 238 -124.5t90 -254.5q0 -185 -126 -290.5t-323 -105.5q-101 0 -184 27v119q76 -25 174 -25q149 0 238.5 77.5t89.5 213.5q0 57 -21 109t-60.5 95t-105 69 t-147.5 26h-119v119h104q152 0 233 75t81 197q0 121 -78.5 196t-218.5 75q-141 0 -220 -90t-79 -228v-1028h-131z" />
<glyph unicode="&#xe0;" d="M82 465q0 212 128.5 351.5t340.5 139.5q127 0 223 -61t141 -166v203h129v-932h-129v201q-45 -101 -144 -163.5t-222 -62.5q-144 0 -251 65.5t-161.5 175.5t-54.5 249zM213 465q0 -161 96 -266t254 -105q164 0 261.5 107.5t97.5 263.5q0 158 -97 265.5t-262 107.5 q-159 0 -254.5 -105t-95.5 -268zM305 1337l78 80l334 -293l-78 -77z" />
<glyph unicode="&#xe1;" d="M82 465q0 212 128.5 351.5t340.5 139.5q127 0 223 -61t141 -166v203h129v-932h-129v201q-45 -101 -144 -163.5t-222 -62.5q-144 0 -251 65.5t-161.5 175.5t-54.5 249zM213 465q0 -161 96 -266t254 -105q164 0 261.5 107.5t97.5 263.5q0 158 -97 265.5t-262 107.5 q-159 0 -254.5 -105t-95.5 -268zM426 1124l334 293l76 -80l-334 -290z" />
<glyph unicode="&#xe2;" d="M82 465q0 212 128.5 351.5t340.5 139.5q127 0 223 -61t141 -166v203h129v-932h-129v201q-45 -101 -144 -163.5t-222 -62.5q-144 0 -251 65.5t-161.5 175.5t-54.5 249zM213 465q0 -161 96 -266t254 -105q164 0 261.5 107.5t97.5 263.5q0 158 -97 265.5t-262 107.5 q-159 0 -254.5 -105t-95.5 -268zM254 1118l315 301l316 -301l-80 -78l-236 232l-233 -232z" />
<glyph unicode="&#xe3;" d="M82 465q0 212 128.5 351.5t340.5 139.5q127 0 223 -61t141 -166v203h129v-932h-129v201q-45 -101 -144 -163.5t-222 -62.5q-144 0 -251 65.5t-161.5 175.5t-54.5 249zM213 465q0 -161 96 -266t254 -105q164 0 261.5 107.5t97.5 263.5q0 158 -97 265.5t-262 107.5 q-159 0 -254.5 -105t-95.5 -268zM219 1202q77 135 199 135q45 0 100 -29.5t107 -59t90 -29.5q82 0 147 94l56 -70q-80 -135 -199 -135q-45 0 -100 30t-107 59.5t-90 29.5q-83 0 -148 -94z" />
<glyph unicode="&#xe4;" d="M82 465q0 212 128.5 351.5t340.5 139.5q127 0 223 -61t141 -166v203h129v-932h-129v201q-45 -101 -144 -163.5t-222 -62.5q-144 0 -251 65.5t-161.5 175.5t-54.5 249zM213 465q0 -161 96 -266t254 -105q164 0 261.5 107.5t97.5 263.5q0 158 -97 265.5t-262 107.5 q-159 0 -254.5 -105t-95.5 -268zM252 1235q0 51 33.5 85t81.5 34q52 0 85 -34t33 -85q0 -48 -34 -81.5t-84 -33.5q-47 0 -81 34t-34 81zM655 1235q0 51 33.5 85t81.5 34q51 0 85 -34t34 -85q0 -48 -34 -81.5t-85 -33.5q-47 0 -81 34t-34 81z" />
<glyph unicode="&#xe5;" d="M82 465q0 212 128.5 351.5t340.5 139.5q127 0 223 -61t141 -166v203h129v-932h-129v201q-45 -101 -144 -163.5t-222 -62.5q-144 0 -251 65.5t-161.5 175.5t-54.5 249zM213 465q0 -161 96 -266t254 -105q164 0 261.5 107.5t97.5 263.5q0 158 -97 265.5t-262 107.5 q-159 0 -254.5 -105t-95.5 -268zM346 1235q0 96 64.5 158.5t158.5 62.5q95 0 159.5 -62.5t64.5 -158.5q0 -97 -64.5 -159t-159.5 -62q-94 0 -158.5 62t-64.5 159zM428 1235q0 -65 40 -106.5t101 -41.5t101.5 41.5t40.5 106.5q0 64 -40.5 105.5t-101.5 41.5 q-60 0 -100.5 -41.5t-40.5 -105.5z" />
<glyph unicode="&#xe6;" horiz-adv-x="1800" d="M92 242q0 149 109 223q59 39 147 55.5t232 16.5h256v77q0 107 -72.5 170.5t-216.5 63.5q-131 0 -207 -58t-82 -165h-131q7 152 122.5 241.5t299.5 89.5q144 0 238 -48.5t135 -135.5q60 88 153 135t209 47q190 0 312 -121.5t122 -310.5q0 -18 -4 -88h-758 q1 -158 92.5 -251t243.5 -93q102 0 176 47t105 131h133q-28 -132 -142 -213.5t-272 -81.5q-136 0 -241 62.5t-162 175.5q-117 -236 -432 -236q-162 0 -263.5 73t-101.5 194zM227 252q0 -83 70 -126.5t195 -43.5q145 0 244.5 80.5t99.5 222.5v25q0 4 -1 12t-1 12h-312 q-150 0 -222.5 -48t-72.5 -134zM958 537h629q0 140 -83.5 226.5t-219.5 86.5q-143 0 -232.5 -85.5t-93.5 -227.5z" />
<glyph unicode="&#xe7;" horiz-adv-x="1056" d="M82 465q0 219 126 354t337 135q183 0 297 -91.5t133 -246.5h-133q-19 107 -96 163.5t-201 56.5q-153 0 -242.5 -100t-89.5 -271q0 -169 89.5 -270t242.5 -101q123 0 200.5 56t96.5 159h133q-17 -144 -122.5 -234.5t-272.5 -99.5v-112q12 18 40.5 29.5t61.5 11.5 q66 0 111 -46.5t45 -121.5q0 -77 -49 -126.5t-134 -49.5q-71 0 -117.5 39.5t-50.5 103.5h78q2 -34 27 -55t65 -21q45 0 72 28.5t27 80.5q0 48 -25.5 77t-71.5 29q-60 0 -90 -49h-67v184q-192 13 -306 147t-114 341z" />
<glyph unicode="&#xe8;" horiz-adv-x="1054" d="M82 467q0 222 125 355.5t328 133.5q195 0 316.5 -121t121.5 -311q0 -22 -4 -88h-754q0 -158 88.5 -251t239.5 -93q104 0 178.5 45.5t105.5 124.5h134q-28 -128 -143.5 -207.5t-274.5 -79.5q-210 0 -335.5 134.5t-125.5 357.5zM215 541h629q-2 140 -84 224.5t-225 84.5 q-138 0 -224.5 -85.5t-95.5 -223.5zM270 1337l78 80l334 -293l-78 -77z" />
<glyph unicode="&#xe9;" horiz-adv-x="1054" d="M82 467q0 222 125 355.5t328 133.5q195 0 316.5 -121t121.5 -311q0 -22 -4 -88h-754q0 -158 88.5 -251t239.5 -93q104 0 178.5 45.5t105.5 124.5h134q-28 -128 -143.5 -207.5t-274.5 -79.5q-210 0 -335.5 134.5t-125.5 357.5zM215 541h629q-2 140 -84 224.5t-225 84.5 q-138 0 -224.5 -85.5t-95.5 -223.5zM389 1124l334 293l76 -80l-334 -290z" />
<glyph unicode="&#xea;" horiz-adv-x="1054" d="M82 467q0 222 125 355.5t328 133.5q195 0 316.5 -121t121.5 -311q0 -22 -4 -88h-754q0 -158 88.5 -251t239.5 -93q104 0 178.5 45.5t105.5 124.5h134q-28 -128 -143.5 -207.5t-274.5 -79.5q-210 0 -335.5 134.5t-125.5 357.5zM215 541h629q-2 140 -84 224.5t-225 84.5 q-138 0 -224.5 -85.5t-95.5 -223.5zM219 1118l316 301l315 -301l-80 -78l-235 232l-234 -232z" />
<glyph unicode="&#xeb;" horiz-adv-x="1054" d="M82 467q0 222 125 355.5t328 133.5q195 0 316.5 -121t121.5 -311q0 -22 -4 -88h-754q0 -158 88.5 -251t239.5 -93q104 0 178.5 45.5t105.5 124.5h134q-28 -128 -143.5 -207.5t-274.5 -79.5q-210 0 -335.5 134.5t-125.5 357.5zM215 541h629q-2 140 -84 224.5t-225 84.5 q-138 0 -224.5 -85.5t-95.5 -223.5zM215 1235q0 51 33.5 85t81.5 34q52 0 85.5 -34t33.5 -85q0 -48 -34 -81.5t-85 -33.5q-47 0 -81 34t-34 81zM618 1235q0 51 33.5 85t81.5 34q51 0 85 -34t34 -85q0 -48 -34 -81.5t-85 -33.5q-47 0 -81 34t-34 81z" />
<glyph unicode="&#xec;" horiz-adv-x="458" d="M-35 1337l78 80l334 -293l-78 -77zM164 0v932h131v-932h-131z" />
<glyph unicode="&#xed;" horiz-adv-x="458" d="M86 1124l334 293l76 -80l-334 -290zM164 0v932h131v-932h-131z" />
<glyph unicode="&#xee;" horiz-adv-x="458" d="M-86 1118l315 301l316 -301l-80 -78l-236 232l-233 -232zM164 0v932h131v-932h-131z" />
<glyph unicode="&#xef;" horiz-adv-x="458" d="M-2 1233q0 44 29.5 74t72.5 30q44 0 74.5 -30t30.5 -74q0 -43 -30.5 -73t-74.5 -30q-43 0 -72.5 30t-29.5 73zM164 0v932h131v-932h-131zM254 1233q0 44 29.5 74t72.5 30q44 0 74.5 -30t30.5 -74q0 -43 -30.5 -73t-74.5 -30q-43 0 -72.5 30t-29.5 73z" />
<glyph unicode="&#xf0;" horiz-adv-x="1124" d="M82 467q0 215 135 352t352 137q59 0 105 -14l-133 197l-191 -105l-41 76l185 100l-150 224h164l104 -158l183 98l43 -74l-176 -96l290 -438q90 -129 90 -299q0 -210 -132 -351t-349 -141q-144 0 -254 66.5t-167.5 177.5t-57.5 248zM213 465q0 -158 94.5 -263.5 t253.5 -105.5q160 0 255 105.5t95 265.5t-95 265.5t-255 105.5q-159 0 -253.5 -106t-94.5 -267z" />
<glyph unicode="&#xf1;" horiz-adv-x="1153" d="M164 0v932h131v-213q35 109 124.5 173t225.5 64q176 0 265 -101t89 -294v-561h-131v510q0 167 -65 249.5t-201 82.5q-150 0 -228.5 -100t-78.5 -267v-475h-131zM225 1200q77 135 199 135q45 0 100 -29.5t107 -59t90 -29.5q82 0 147 94l56 -70q-80 -135 -199 -135 q-45 0 -100 30t-107 59.5t-90 29.5q-82 0 -147 -95z" />
<glyph unicode="&#xf2;" horiz-adv-x="1124" d="M82 467q0 136 57.5 246.5t167.5 176.5t254 66q217 0 349 -140.5t132 -348.5q0 -210 -132 -351t-349 -141q-144 0 -254 66.5t-167.5 177.5t-57.5 248zM213 465q0 -158 94.5 -263.5t253.5 -105.5q160 0 255 105.5t95 265.5t-95 265.5t-255 105.5q-159 0 -253.5 -106 t-94.5 -267zM299 1335l78 80l334 -293l-78 -78z" />
<glyph unicode="&#xf3;" horiz-adv-x="1124" d="M82 467q0 136 57.5 246.5t167.5 176.5t254 66q217 0 349 -140.5t132 -348.5q0 -210 -132 -351t-349 -141q-144 0 -254 66.5t-167.5 177.5t-57.5 248zM213 465q0 -158 94.5 -263.5t253.5 -105.5q160 0 255 105.5t95 265.5t-95 265.5t-255 105.5q-159 0 -253.5 -106 t-94.5 -267zM418 1122l334 293l75 -80l-333 -291z" />
<glyph unicode="&#xf4;" horiz-adv-x="1124" d="M82 467q0 136 57.5 246.5t167.5 176.5t254 66q217 0 349 -140.5t132 -348.5q0 -210 -132 -351t-349 -141q-144 0 -254 66.5t-167.5 177.5t-57.5 248zM213 465q0 -158 94.5 -263.5t253.5 -105.5q160 0 255 105.5t95 265.5t-95 265.5t-255 105.5q-159 0 -253.5 -106 t-94.5 -267zM248 1116l315 301l316 -301l-80 -78l-236 232l-233 -232z" />
<glyph unicode="&#xf5;" horiz-adv-x="1124" d="M82 467q0 136 57.5 246.5t167.5 176.5t254 66q217 0 349 -140.5t132 -348.5q0 -210 -132 -351t-349 -141q-144 0 -254 66.5t-167.5 177.5t-57.5 248zM213 465q0 -158 94.5 -263.5t253.5 -105.5q160 0 255 105.5t95 265.5t-95 265.5t-255 105.5q-159 0 -253.5 -106 t-94.5 -267zM213 1200q77 135 199 135q45 0 100 -29.5t107 -59t90 -29.5q82 0 147 94l55 -70q-80 -135 -198 -135q-45 0 -100 30t-107 59.5t-90 29.5q-83 0 -148 -95z" />
<glyph unicode="&#xf6;" horiz-adv-x="1124" d="M82 467q0 136 57.5 246.5t167.5 176.5t254 66q217 0 349 -140.5t132 -348.5q0 -210 -132 -351t-349 -141q-144 0 -254 66.5t-167.5 177.5t-57.5 248zM213 465q0 -158 94.5 -263.5t253.5 -105.5q160 0 255 105.5t95 265.5t-95 265.5t-255 105.5q-159 0 -253.5 -106 t-94.5 -267zM244 1233q0 51 33 85t81 34q52 0 85.5 -34t33.5 -85q0 -48 -34 -81.5t-85 -33.5q-47 0 -80.5 34t-33.5 81zM647 1233q0 51 33.5 85t81.5 34q51 0 85 -34t34 -85q0 -48 -34 -81.5t-85 -33.5q-47 0 -81 34t-34 81z" />
<glyph unicode="&#xf7;" horiz-adv-x="1032" d="M113 580v118h807v-118h-807zM395 344q0 51 35 86t86 35t87 -35t36 -86t-36 -86t-87 -35t-86 35t-35 86zM395 942q0 52 35 87.5t86 35.5t87 -35.5t36 -87.5q0 -51 -36 -85t-87 -34t-86 34t-35 85z" />
<glyph unicode="&#xf8;" horiz-adv-x="1124" d="M82 467q0 136 57.5 246.5t167.5 176.5t254 66q94 0 168 -26l47 110l80 -34l-47 -111q110 -63 171.5 -176.5t61.5 -251.5q0 -210 -132 -351t-349 -141q-73 0 -141 19l-58 -131l-79 35l55 127q-121 60 -188.5 177.5t-67.5 264.5zM213 465q0 -107 46 -194t128 -132l293 680 q-55 19 -119 19q-159 0 -253.5 -106t-94.5 -267zM469 106q48 -10 92 -10q160 0 255 105.5t95 265.5q0 100 -39.5 183t-111.5 130z" />
<glyph unicode="&#xf9;" horiz-adv-x="1153" d="M154 371v561h131v-533q0 -144 64.5 -225.5t203.5 -81.5q78 0 138.5 31t95 82t52 110t17.5 123v494h131v-932h-131v211q-35 -103 -124.5 -169.5t-213.5 -66.5q-166 0 -265 101.5t-99 294.5zM315 1335l78 80l334 -293l-78 -78z" />
<glyph unicode="&#xfa;" horiz-adv-x="1153" d="M154 371v561h131v-533q0 -144 64.5 -225.5t203.5 -81.5q78 0 138.5 31t95 82t52 110t17.5 123v494h131v-932h-131v211q-35 -103 -124.5 -169.5t-213.5 -66.5q-166 0 -265 101.5t-99 294.5zM436 1122l334 293l76 -80l-334 -291z" />
<glyph unicode="&#xfb;" horiz-adv-x="1153" d="M154 371v561h131v-533q0 -144 64.5 -225.5t203.5 -81.5q78 0 138.5 31t95 82t52 110t17.5 123v494h131v-932h-131v211q-35 -103 -124.5 -169.5t-213.5 -66.5q-166 0 -265 101.5t-99 294.5zM264 1116l316 301l315 -301l-80 -78l-235 232l-234 -232z" />
<glyph unicode="&#xfc;" horiz-adv-x="1153" d="M154 371v561h131v-533q0 -144 64.5 -225.5t203.5 -81.5q78 0 138.5 31t95 82t52 110t17.5 123v494h131v-932h-131v211q-35 -103 -124.5 -169.5t-213.5 -66.5q-166 0 -265 101.5t-99 294.5zM262 1233q0 51 33.5 85t81.5 34q52 0 85.5 -34t33.5 -85q0 -48 -34 -81.5 t-85 -33.5q-47 0 -81 34t-34 81zM666 1233q0 51 33 85t81 34q51 0 85 -34t34 -85q0 -48 -34 -81.5t-85 -33.5q-47 0 -80.5 34t-33.5 81z" />
<glyph unicode="&#xfd;" horiz-adv-x="1161" d="M154 -131h133q3 -101 70 -161t212 -60q297 0 297 329v230q-41 -102 -131 -166t-217 -64q-364 0 -364 414v541h131v-516q0 -157 61.5 -238.5t212.5 -81.5q75 0 135.5 31.5t97 83t55.5 114.5t19 130v477h131v-963q0 -227 -131 -340q-111 -94 -295 -94q-199 0 -313 94 q-101 87 -104 240zM428 1122l334 293l76 -80l-334 -291z" />
<glyph unicode="&#xfe;" d="M164 -440v1874h131v-705q46 105 146.5 166t228.5 61q201 0 328.5 -137t127.5 -354q0 -214 -131 -352t-333 -138q-123 0 -222 61.5t-145 164.5v-641h-131zM289 465q0 -162 101 -266.5t257 -104.5q152 0 250 105t98 266q0 163 -98 268t-250 105q-158 0 -258 -105t-100 -268 z" />
<glyph unicode="&#xff;" horiz-adv-x="1161" d="M154 -131h133q3 -101 70 -161t212 -60q297 0 297 329v230q-41 -102 -131 -166t-217 -64q-364 0 -364 414v541h131v-516q0 -157 61.5 -238.5t212.5 -81.5q75 0 135.5 31.5t97 83t55.5 114.5t19 130v477h131v-963q0 -227 -131 -340q-111 -94 -295 -94q-199 0 -313 94 q-101 87 -104 240zM254 1233q0 51 33.5 85t81.5 34q52 0 85 -34t33 -85q0 -48 -34 -81.5t-84 -33.5q-47 0 -81 34t-34 81zM657 1233q0 51 33.5 85t81.5 34q51 0 85 -34t34 -85q0 -48 -34 -81.5t-85 -33.5q-47 0 -81 34t-34 81z" />
<glyph unicode="&#x152;" horiz-adv-x="1769" d="M82 717q0 143 47 272.5t132 228.5t214 157.5t283 58.5h868v-125h-592v-535h592v-125h-592v-524h592v-125h-868q-154 0 -283 58.5t-214 157.5t-132 228.5t-47 272.5zM225 717q0 -160 62 -293t185.5 -216t285.5 -83h137v1184h-137q-162 0 -285.5 -83t-185.5 -216t-62 -293z " />
<glyph unicode="&#x153;" horiz-adv-x="1884" d="M82 467q0 136 57.5 246.5t167.5 176.5t254 66q138 0 244 -59.5t168 -163.5q56 106 157 164.5t234 58.5q195 0 316.5 -121t121.5 -311q0 -22 -4 -88h-756q0 -158 89.5 -251t240.5 -93q103 0 178.5 45.5t106.5 124.5h133q-28 -128 -143.5 -207.5t-274.5 -79.5 q-136 0 -238.5 59t-160.5 165q-62 -104 -168.5 -164t-243.5 -60q-144 0 -254 66.5t-167.5 177.5t-57.5 248zM213 465q0 -158 94.5 -263.5t253.5 -105.5q160 0 255 105.5t95 265.5t-95 265.5t-255 105.5q-159 0 -253.5 -106t-94.5 -267zM1042 541h629q0 139 -83 224t-224 85 q-139 0 -226 -85.5t-96 -223.5z" />
<glyph unicode="&#x178;" horiz-adv-x="1110" d="M-10 1434h160l458 -725l371 725h151l-731 -1434h-151l289 567zM223 1665q0 51 33.5 85t83.5 34t84.5 -34t34.5 -85q0 -47 -35 -81t-84 -34t-83 33.5t-34 81.5zM702 1665q0 51 33.5 85t83.5 34t84.5 -34t34.5 -85q0 -47 -35 -81t-84 -34t-83 33.5t-34 81.5z" />
<glyph unicode="&#x2c6;" horiz-adv-x="1228" d="M88 1118l315 301l316 -301l-80 -78l-236 232l-233 -232z" />
<glyph unicode="&#x2dc;" horiz-adv-x="1228" d="M90 1202q77 135 199 135q45 0 100 -29.5t107 -59t90 -29.5q82 0 147 94l55 -70q-80 -135 -198 -135q-45 0 -100 30t-107 59.5t-90 29.5q-83 0 -148 -94z" />
<glyph unicode="&#x2000;" horiz-adv-x="919" />
<glyph unicode="&#x2001;" horiz-adv-x="1839" />
<glyph unicode="&#x2002;" horiz-adv-x="919" />
<glyph unicode="&#x2003;" horiz-adv-x="1839" />
<glyph unicode="&#x2004;" horiz-adv-x="613" />
<glyph unicode="&#x2005;" horiz-adv-x="459" />
<glyph unicode="&#x2006;" horiz-adv-x="306" />
<glyph unicode="&#x2007;" horiz-adv-x="306" />
<glyph unicode="&#x2008;" horiz-adv-x="229" />
<glyph unicode="&#x2009;" horiz-adv-x="367" />
<glyph unicode="&#x200a;" horiz-adv-x="102" />
<glyph unicode="&#x2010;" horiz-adv-x="843" d="M113 473v119h616v-119h-616z" />
<glyph unicode="&#x2011;" horiz-adv-x="843" d="M113 473v119h616v-119h-616z" />
<glyph unicode="&#x2012;" horiz-adv-x="843" d="M113 473v119h616v-119h-616z" />
<glyph unicode="&#x2013;" horiz-adv-x="1216" d="M113 487v109h991v-109h-991z" />
<glyph unicode="&#x2014;" horiz-adv-x="1593" d="M113 498v108h1368v-108h-1368z" />
<glyph unicode="&#x2018;" horiz-adv-x="548" d="M143 1266q0 111 60 178t162 67q34 0 55 -6v-67q-18 4 -53 4q-44 0 -75 -24t-40 -64q-17 -42 -8 -97q23 29 69 29q49 0 81 -30.5t32 -81.5q0 -52 -33 -85.5t-88 -33.5q-66 0 -114 56.5t-48 154.5z" />
<glyph unicode="&#x2019;" horiz-adv-x="548" d="M123 1352q0 52 33 85t88 33q66 0 114 -57t48 -153q0 -111 -60 -178.5t-162 -67.5q-39 0 -55 4v69q20 -4 53 -4q44 0 75 24t40 64q15 37 10 95q-23 -29 -71 -29t-80.5 32t-32.5 83z" />
<glyph unicode="&#x201a;" horiz-adv-x="548" d="M123 100q0 52 33 85.5t88 33.5q66 0 114 -56.5t48 -154.5q0 -111 -60 -178.5t-162 -67.5q-27 0 -55 7v67q20 -4 53 -4q44 0 75 24t40 64q15 37 10 96q-22 -28 -71 -28t-81 30.5t-32 81.5z" />
<glyph unicode="&#x201c;" horiz-adv-x="892" d="M143 1266q0 111 60 178t162 67q34 0 55 -6v-67q-18 4 -53 4q-44 0 -75 -24t-40 -64q-17 -42 -8 -97q23 29 69 29q49 0 81 -30.5t32 -81.5q0 -52 -33 -85.5t-88 -33.5q-66 0 -114 56.5t-48 154.5zM487 1266q0 111 60 178t162 67q34 0 55 -6v-67q-18 4 -53 4q-44 0 -75 -24 t-40 -64q-15 -37 -10 -97q23 29 71 29q49 0 81 -30.5t32 -81.5q0 -52 -33 -85.5t-88 -33.5q-66 0 -114 56.5t-48 154.5z" />
<glyph unicode="&#x201d;" horiz-adv-x="892" d="M123 1352q0 52 33 85t88 33q66 0 114 -57t48 -153q0 -111 -60 -178.5t-162 -67.5q-39 0 -55 4v69q20 -4 53 -4q44 0 75 24t40 64q15 37 10 95q-23 -29 -71 -29t-80.5 32t-32.5 83zM467 1352q0 52 33 85t88 33q66 0 114 -57t48 -153q0 -111 -60 -178.5t-162 -67.5 q-41 0 -55 4v69q18 -4 53 -4q44 0 75 24t40 64q15 37 10 95q-23 -29 -71 -29t-80.5 32t-32.5 83z" />
<glyph unicode="&#x201e;" horiz-adv-x="892" d="M123 100q0 52 33 85.5t88 33.5q66 0 114 -56.5t48 -154.5q0 -111 -60 -178.5t-162 -67.5q-27 0 -55 7v67q20 -4 53 -4q44 0 75 24t40 64q15 37 10 96q-22 -28 -71 -28t-81 30.5t-32 81.5zM467 100q0 52 33 85.5t88 33.5q66 0 114 -56.5t48 -154.5q0 -111 -60 -178.5 t-162 -67.5q-30 0 -55 7v67q18 -4 53 -4q44 0 75 24t40 64q15 37 10 96q-22 -28 -71 -28t-81 30.5t-32 81.5z" />
<glyph unicode="&#x2022;" horiz-adv-x="743" d="M133 639q0 100 70 170t168 70q100 0 169.5 -70t69.5 -170q0 -99 -70 -168.5t-169 -69.5q-98 0 -168 70t-70 168z" />
<glyph unicode="&#x2026;" horiz-adv-x="1538" d="M164 104q0 53 36.5 90t88.5 37q53 0 90 -37.5t37 -89.5t-37 -88t-90 -36t-89 36t-36 88zM643 104q0 53 35.5 90t87.5 37q54 0 90.5 -37t36.5 -90t-36.5 -88.5t-90.5 -35.5q-52 0 -87.5 35.5t-35.5 88.5zM1122 104q0 53 36.5 90t88.5 37q54 0 90.5 -37t36.5 -90 t-36.5 -88.5t-90.5 -35.5q-53 0 -89 36t-36 88z" />
<glyph unicode="&#x202f;" horiz-adv-x="367" />
<glyph unicode="&#x2039;" horiz-adv-x="548" d="M16 535l418 385l78 -78l-334 -307l334 -308l-78 -77z" />
<glyph unicode="&#x203a;" horiz-adv-x="548" d="M37 227l334 308l-334 307l76 78l419 -385l-419 -385z" />
<glyph unicode="&#x205f;" horiz-adv-x="459" />
<glyph unicode="&#x20ac;" horiz-adv-x="1204" d="M47 504l25 96h102q-2 33 -2 98q0 64 2 95h-123l25 96h106q59 528 473 528q98 0 178 -32t134 -89.5t88 -131.5t47 -163h-133q-23 135 -101 214t-213 79q-160 0 -240 -106t-100 -299h457l-24 -96h-441q-2 -31 -2 -95q0 -65 2 -98h461l-27 -96h-426q11 -93 33.5 -164 t62 -126.5t101 -84.5t143.5 -29q135 0 213 80t101 215h133q-13 -89 -47 -163t-88 -131t-134 -89t-178 -32q-411 0 -473 524h-135z" />
<glyph unicode="&#x2122;" horiz-adv-x="1693" d="M16 1339v95h529v-95h-213v-739h-103v739h-213zM707 600v834h157l248 -662l250 662h158v-834h-101v698l-260 -698h-92l-260 698v-698h-100z" />
<glyph unicode="&#x25fc;" horiz-adv-x="931" d="M0 0v932h932v-932h-932z" />
<glyph unicode="&#xfb03;" horiz-adv-x="1906" d="M47 819v113h205v188q0 81 19 142t47.5 95t68 55t73 27.5t70.5 6.5q83 0 138 -25v-114q-66 20 -107 20q-28 0 -49.5 -3t-47 -15.5t-42 -33t-28 -59t-11.5 -90.5v-194h285v-113h-285v-819h-131v819h-205zM797 819v113h204v188q0 81 19.5 142t48 95t68 55t73 27.5t70.5 6.5 q82 0 137 -25v-114q-66 20 -106 20q-28 0 -49.5 -3t-47 -15.5t-42 -33t-28 -59t-11.5 -90.5v-194h284v-113h-284v-819h-132v819h-204zM1556 1241q0 53 34 88t87 35q54 0 88.5 -35t34.5 -88q0 -51 -35 -86t-88 -35t-87 34.5t-34 86.5zM1612 0v932h131v-932h-131z" />
<glyph unicode="&#xfb04;" horiz-adv-x="1906" d="M47 819v113h205v188q0 81 19 142t47.5 95t68 55t73 27.5t70.5 6.5q83 0 138 -25v-114q-66 20 -107 20q-28 0 -49.5 -3t-47 -15.5t-42 -33t-28 -59t-11.5 -90.5v-194h285v-113h-285v-819h-131v819h-205zM797 819v113h204v188q0 81 19.5 142t48 95t68 55t73 27.5t70.5 6.5 q82 0 137 -25v-114q-66 20 -106 20q-28 0 -49.5 -3t-47 -15.5t-42 -33t-28 -59t-11.5 -90.5v-194h284v-113h-284v-819h-132v819h-204zM1612 0v1434h131v-1434h-131z" />
</font>
</defs>
</svg>
