<?xml version="1.0" standalone="no"?>
<!DOCTYPE svg PUBLIC "-//W3C//DTD SVG 1.1//EN" "http://www.w3.org/Graphics/SVG/1.1/DTD/svg11.dtd" >
<svg xmlns="http://www.w3.org/2000/svg" xmlns:xlink="http://www.w3.org/1999/xlink" version="1.1">
<metadata></metadata>
<defs>
<font id="gt_walsheim_proregular" horiz-adv-x="1210" >
<font-face units-per-em="2048" ascent="1567" descent="-481" />
<missing-glyph horiz-adv-x="518" />
<glyph unicode="&#xfb01;" horiz-adv-x="1202" d="M43 795v149h201v164q0 84 22 148t54 99t75.5 56.5t78.5 28t71 6.5q84 0 143 -23v-151q-54 14 -98 14q-26 0 -45.5 -2.5t-44 -13t-40.5 -28t-27 -51t-11 -79.5v-168h266v-149h-266v-795h-178v795h-201zM815 1249q0 61 41.5 103.5t104.5 42.5q62 0 102.5 -42.5t40.5 -103.5 t-40.5 -102t-102.5 -41q-64 0 -105 41t-41 102zM872 0v944h177v-944h-177z" />
<glyph unicode="&#xfb02;" horiz-adv-x="1204" d="M43 795v149h201v164q0 84 22 148t54 99t75.5 56.5t78.5 28t71 6.5q84 0 143 -23v-151q-54 14 -98 14q-26 0 -45.5 -2.5t-44 -13t-40.5 -28t-27 -51t-11 -79.5v-168h266v-149h-266v-795h-178v795h-201zM872 0v1434h179v-1434h-179z" />
<glyph horiz-adv-x="0" />
<glyph horiz-adv-x="682" />
<glyph unicode="&#xd;" horiz-adv-x="518" />
<glyph unicode=" "  horiz-adv-x="518" />
<glyph unicode="&#x09;" horiz-adv-x="518" />
<glyph unicode="&#xa0;" horiz-adv-x="518" />
<glyph unicode="!" horiz-adv-x="546" d="M125 135q0 62 42.5 106t104.5 44q63 0 107.5 -44t44.5 -106t-44.5 -105.5t-107.5 -43.5q-62 0 -104.5 43.5t-42.5 105.5zM184 430v1004h178v-1004h-178z" />
<glyph unicode="&#x22;" horiz-adv-x="847" d="M113 1280q0 57 40 97t97 40q58 0 98.5 -40t40.5 -97q0 -22 -6 -43l-86 -379h-90l-88 379q-6 21 -6 43zM459 1280q0 57 39.5 97t97.5 40t98.5 -40t40.5 -97q0 -22 -6 -43l-86 -379h-90l-90 379q-4 28 -4 43z" />
<glyph unicode="#" horiz-adv-x="1099" d="M47 428v139h215l41 299h-194v140h213l59 428h147l-59 -428h258l59 428h148l-60 -428h181v-140h-201l-41 -299h180v-139h-200l-60 -428h-145l59 428h-260l-59 -428h-146l60 428h-195zM408 567h260l41 299h-260z" />
<glyph unicode="$" horiz-adv-x="1114" d="M72 453h186q0 -148 84 -235t233 -87q129 0 200 59t71 168q0 87 -50.5 141.5t-158.5 88.5l-231 63q-140 42 -215.5 140t-75.5 243q0 147 107 255.5t284 123.5v184h135v-188q166 -25 262.5 -137.5t97.5 -286.5h-186q-2 129 -71 199.5t-195 70.5q-118 0 -182 -58.5 t-64 -152.5q0 -93 53 -151.5t172 -93.5l242 -74q127 -39 194.5 -131t67.5 -232q0 -164 -105 -269t-286 -124v-174h-135v176q-207 19 -320.5 145.5t-113.5 336.5z" />
<glyph unicode="%" horiz-adv-x="1595" d="M43 1061q0 144 97.5 246t260.5 102q164 0 262.5 -102t98.5 -246t-98.5 -246t-262.5 -102q-163 0 -260.5 102t-97.5 246zM199 1061q0 -90 53.5 -150.5t148.5 -60.5q96 0 150.5 60.5t54.5 150.5q0 89 -54.5 149t-150.5 60q-95 0 -148.5 -60t-53.5 -149zM250 37l967 1397 l118 -66l-964 -1397zM834 338q0 144 97.5 246t260.5 102q164 0 262 -102t98 -246t-98 -246t-262 -102q-163 0 -260.5 102t-97.5 246zM989 338q0 -90 54 -149.5t149 -59.5t150 59.5t55 149.5t-55 149.5t-150 59.5t-149 -59.5t-54 -149.5z" />
<glyph unicode="&#x26;" horiz-adv-x="1216" d="M92 397q0 134 82.5 230.5t202.5 124.5q-118 33 -186 115t-68 204q0 177 127 285t336 108q134 0 237.5 -47t165.5 -146t62 -237h-195q0 121 -69 196t-201 75q-117 0 -194 -63t-77 -171q0 -112 65.5 -176t199.5 -64h55v-169h-51q-153 0 -227 -72.5t-74 -194.5 q0 -110 81 -186t216 -76q138 0 221 88t86 248h-150v166h463v-166h-121q-6 -239 -141.5 -369.5t-357.5 -130.5q-214 0 -351 119.5t-137 308.5z" />
<glyph unicode="'" horiz-adv-x="501" d="M113 1280q0 57 40 97t97 40q58 0 98.5 -40t40.5 -97q0 -22 -6 -43l-86 -379h-90l-88 379q-6 21 -6 43z" />
<glyph unicode="(" horiz-adv-x="651" d="M119 557q0 565 448 954l109 -102q-190 -185 -285.5 -389t-95.5 -463t95.5 -463t285.5 -389l-109 -100q-100 87 -177.5 181.5t-140.5 211t-96.5 258.5t-33.5 301z" />
<glyph unicode=")" horiz-adv-x="651" d="M-25 -295q190 185 285.5 389t95.5 463t-95.5 463t-285.5 389l109 102q448 -392 448 -954q0 -159 -34 -301t-97.5 -259t-140.5 -211t-176 -181z" />
<glyph unicode="*" horiz-adv-x="862" d="M51 1143l43 127l287 -113l-19 311h138l-19 -311l287 113l43 -127l-297 -80l207 -258l-115 -82l-174 278l-178 -278l-115 82l209 258z" />
<glyph unicode="+" horiz-adv-x="1032" d="M109 565v158h323v330h168v-330h324v-158h-324v-327h-168v327h-323z" />
<glyph unicode="," horiz-adv-x="606" d="M143 129q0 64 41.5 105.5t106.5 41.5q73 0 129.5 -61t56.5 -174q0 -128 -68.5 -206.5t-191.5 -78.5q-52 0 -70 4v86q25 -4 76 -4q41 0 71 18.5t44 51.5q27 47 27 108q-26 -30 -84 -30q-59 0 -98.5 38t-39.5 101z" />
<glyph unicode="-" horiz-adv-x="839" d="M109 457v159h624v-159h-624z" />
<glyph unicode="." horiz-adv-x="585" d="M143 135q0 62 43.5 106t104.5 44q63 0 107 -44t44 -106t-44 -105.5t-107 -43.5q-61 0 -104.5 43.5t-43.5 105.5z" />
<glyph unicode="/" horiz-adv-x="897" d="M27 -70l702 1629l143 -64l-702 -1628z" />
<glyph unicode="0" horiz-adv-x="1247" d="M98 698q0 352 134.5 535.5t392.5 183.5t392 -183.5t134 -535.5q0 -353 -134 -537t-392 -184t-392.5 184t-134.5 537zM274 698q0 -557 351 -557q348 0 348 557q0 555 -348 555q-351 0 -351 -555z" />
<glyph unicode="1" horiz-adv-x="776" d="M74 997v158q125 0 191 24.5t90 73.5t24 140h170v-1393h-184v997h-291z" />
<glyph unicode="2" horiz-adv-x="1165" d="M109 0q0 232 80 374.5t266 239.5l213 113q192 100 192 291q0 104 -68 168.5t-176 64.5q-134 0 -209 -84t-75 -237h-193q0 221 129.5 353t347.5 132q203 0 322 -104.5t119 -284.5q0 -132 -70.5 -240t-202.5 -180l-211 -112q-129 -69 -181 -138t-66 -188h731v-168h-948z " />
<glyph unicode="3" horiz-adv-x="1153" d="M80 438h188q0 -142 82.5 -222.5t227.5 -80.5q127 0 205.5 70t78.5 184q0 123 -76.5 189.5t-218.5 66.5h-102v160h104q126 0 193 59.5t67 173.5q0 98 -71 160t-185 62q-128 0 -203 -71t-75 -192h-182q0 191 125 304.5t335 113.5q200 0 323.5 -103.5t123.5 -273.5 q0 -118 -65.5 -197.5t-190.5 -111.5q126 -17 206.5 -112t80.5 -228q0 -183 -132 -297.5t-341 -114.5q-233 0 -365.5 122t-132.5 339z" />
<glyph unicode="4" horiz-adv-x="1175" d="M133 451v942h184v-775h377v412h185v-412h217v-167h-217v-451h-185v451h-561z" />
<glyph unicode="5" horiz-adv-x="1179" d="M129 360h188q6 -100 84.5 -158.5t200.5 -58.5q142 0 224.5 88.5t82.5 239.5q0 148 -76 234t-206 86q-115 0 -186.5 -42.5t-112.5 -136.5h-172v781h848v-166h-678v-430q107 145 325 145q201 0 318.5 -126t117.5 -339q0 -219 -134 -359.5t-355 -140.5q-196 0 -327 107 t-142 276z" />
<glyph unicode="6" horiz-adv-x="1163" d="M88 471q0 187 105 320l423 602h224l-312 -426q16 2 52 2q224 0 357.5 -142.5t133.5 -355.5q0 -103 -34 -193t-96 -157.5t-155.5 -106.5t-205.5 -39q-148 0 -261.5 67t-172 179t-58.5 250zM266 471q0 -146 84.5 -241t229.5 -95t230 95.5t85 240.5q0 147 -85 242.5 t-230 95.5t-229.5 -95.5t-84.5 -242.5z" />
<glyph unicode="7" horiz-adv-x="1050" d="M92 1221v172h959l-721 -1393h-207l647 1221h-678z" />
<glyph unicode="8" horiz-adv-x="1183" d="M102 381q0 129 64.5 218.5t181.5 121.5q-104 32 -164.5 121t-60.5 205q0 164 130 266t339 102t339 -102t130 -266q0 -116 -61.5 -205t-165.5 -121q117 -32 182 -121.5t65 -218.5q0 -184 -133 -294t-356 -110t-356.5 110t-133.5 294zM293 393q0 -117 82 -187.5t217 -70.5 t218 70.5t83 187.5t-82 186.5t-219 69.5q-132 0 -215.5 -70t-83.5 -186zM313 1028q0 -104 77.5 -167.5t201.5 -63.5q128 0 203 63t75 168q0 109 -75 172.5t-203 63.5t-203.5 -63.5t-75.5 -172.5z" />
<glyph unicode="9" horiz-adv-x="1136" d="M63 922q0 138 58.5 249.5t172.5 178.5t263 67q223 0 357.5 -142t134.5 -353q0 -187 -105 -320l-424 -602h-223l311 426q-16 -2 -51 -2q-149 0 -263 67t-172.5 179.5t-58.5 251.5zM242 922q0 -147 85 -242.5t230 -95.5t229 95.5t84 242.5q0 146 -84 240.5t-229 94.5 t-230 -95t-85 -240z" />
<glyph unicode=":" horiz-adv-x="585" d="M143 135q0 62 43.5 106t104.5 44q63 0 107 -44t44 -106t-44 -105.5t-107 -43.5q-61 0 -104.5 43.5t-43.5 105.5zM143 817q0 61 43.5 104.5t104.5 43.5q63 0 107 -43t44 -105t-44 -105.5t-107 -43.5q-61 0 -104.5 43.5t-43.5 105.5z" />
<glyph unicode=";" horiz-adv-x="606" d="M143 129q0 64 41.5 105.5t106.5 41.5q73 0 129.5 -61t56.5 -174q0 -128 -68.5 -206.5t-191.5 -78.5q-52 0 -70 4v86q25 -4 76 -4q41 0 71 18.5t44 51.5q27 47 27 108q-26 -30 -84 -30q-59 0 -98.5 38t-39.5 101zM143 815q0 62 43.5 106t104.5 44q63 0 107 -44t44 -106 t-44 -105.5t-107 -43.5q-61 0 -104.5 43.5t-43.5 105.5z" />
<glyph unicode="&#x3c;" horiz-adv-x="1024" d="M109 584v129l806 354v-168l-561 -250l561 -252v-168z" />
<glyph unicode="=" horiz-adv-x="1083" d="M109 381v160h868v-160h-868zM109 743v160h868v-160h-868z" />
<glyph unicode="&#x3e;" horiz-adv-x="1024" d="M109 229v168l561 252l-561 250v168l806 -354v-129z" />
<glyph unicode="?" horiz-adv-x="966" d="M18 1012q0 214 126 335t345 121q200 0 312 -107.5t112 -279.5q0 -123 -53 -207.5t-151 -160.5l-88 -64q-58 -43 -78.5 -81t-20.5 -103v-35h-176v33q0 103 26.5 163.5t106.5 118.5l105 74q137 97 137 256q0 103 -64.5 166.5t-175.5 63.5q-126 0 -201 -76t-75 -217h-187z M285 135q0 62 43 106t106 44q62 0 106 -44.5t44 -105.5t-44 -105t-106 -44q-63 0 -106 43.5t-43 105.5z" />
<glyph unicode="@" horiz-adv-x="1820" d="M78 442q0 251 104.5 439.5t296 289.5t445.5 101q183 0 331.5 -51.5t259 -152.5t170.5 -262t60 -370q0 -242 -84.5 -375t-247.5 -133q-125 0 -190 62t-86 188q-37 -72 -114 -117t-181 -45q-88 0 -164.5 34t-128 91.5t-80.5 134t-29 160.5q0 175 114.5 298.5t291.5 123.5 q99 0 175 -43t116 -119v144h149v-568q0 -120 34 -171.5t99 -51.5q37 0 68.5 19.5t58 61t41.5 117t15 177.5q0 188 -48 327.5t-138 225.5t-212.5 128t-279.5 42q-323 0 -514 -192t-191 -515q0 -156 47.5 -285.5t137 -223.5t226.5 -146.5t308 -52.5q224 0 408 104l55 -119 q-208 -114 -467 -114q-202 0 -365.5 63.5t-270 176t-163.5 265.5t-57 334zM592 436q0 -119 74.5 -201.5t195.5 -82.5q122 0 198.5 82.5t76.5 201.5q0 121 -77 204t-198 83q-120 0 -195 -83t-75 -204z" />
<glyph unicode="A" horiz-adv-x="1208" d="M37 0l485 1434h164l485 -1434h-200l-70 219h-596l-67 -219h-201zM358 387h492l-248 789z" />
<glyph unicode="B" horiz-adv-x="1191" d="M164 0v1434h471q207 0 326.5 -99t119.5 -272q0 -141 -71.5 -223.5t-198.5 -108.5q123 -14 206 -104.5t83 -235.5q0 -182 -119.5 -286.5t-325.5 -104.5h-491zM350 166h301q122 0 192 64.5t70 179.5q0 105 -68.5 170t-176.5 65h-318v-479zM350 809h291q116 0 185 62t69 167 q0 110 -70.5 170t-195.5 60h-279v-459z" />
<glyph unicode="C" horiz-adv-x="1585" d="M78 717q0 160 51 297t144.5 237.5t234 157.5t311.5 57q282 0 463.5 -139.5t222.5 -363.5h-205q-41 157 -163.5 246t-315.5 89q-256 0 -402.5 -161t-146.5 -420t146.5 -420.5t402.5 -161.5q193 0 315.5 89.5t163.5 246.5h205q-41 -224 -222.5 -364t-463.5 -140 q-171 0 -311.5 57.5t-234 158t-144.5 237.5t-51 297z" />
<glyph unicode="D" horiz-adv-x="1415" d="M164 0v1434h457q139 0 258 -39t204.5 -106.5t146.5 -158.5t90.5 -196t29.5 -217t-29.5 -217t-90.5 -196t-146.5 -158.5t-204.5 -106.5t-258 -39h-457zM350 168h256q109 0 201 30.5t155.5 82.5t108 122.5t65.5 149.5t21 164t-21 164t-65.5 149.5t-108 122.5t-155.5 82.5 t-201 30.5h-256v-1098z" />
<glyph unicode="E" horiz-adv-x="1116" d="M164 0v1434h815v-168h-629v-469h629v-168h-629v-461h629v-168h-815z" />
<glyph unicode="F" horiz-adv-x="1089" d="M164 0v1434h815v-168h-629v-518h629v-168h-629v-580h-186z" />
<glyph unicode="G" horiz-adv-x="1695" d="M108.5 944.5q30.5 112.5 92 207.5t149 165t208.5 109.5t263 39.5q248 0 419.5 -125t199.5 -317h-205q-32 122 -141.5 198t-272.5 76q-134 0 -240.5 -46t-173 -126.5t-101.5 -186.5q-34 -103 -34 -223v-7q-1 -160 62.5 -289.5t188 -207t290.5 -77.5q201 0 324.5 101 t162.5 292h-348v168h701v-168h-158q-47 -260 -223.5 -410.5t-458.5 -150.5q-224 0 -393 99t-256 266q-86 166 -86 372q0 128 30.5 240.5z" />
<glyph unicode="H" horiz-adv-x="1368" d="M164 0v1434h186v-637h668v637h186v-1434h-186v629h-668v-629h-186z" />
<glyph unicode="I" horiz-adv-x="514" d="M164 0v1434h186v-1434h-186z" />
<glyph unicode="J" horiz-adv-x="1097" d="M47 455h186q0 -148 74.5 -234t202.5 -86q129 0 201.5 87.5t72.5 236.5v975h187v-975q0 -227 -123 -359.5t-338 -132.5q-212 0 -337.5 132t-125.5 356z" />
<glyph unicode="K" horiz-adv-x="1218" d="M164 0v1434h186v-670l602 670h238l-664 -709l664 -725h-240l-600 666v-666h-186z" />
<glyph unicode="L" horiz-adv-x="1044" d="M164 0v1434h186v-1258h611v-176h-797z" />
<glyph unicode="M" horiz-adv-x="1669" d="M164 0v1434h180l492 -1170l491 1170h178v-1434h-178v1047l-420 -1047h-143l-422 1053v-1053h-178z" />
<glyph unicode="N" horiz-adv-x="1349" d="M164 0v1434h198l646 -1123v1123h178v-1434h-197l-647 1122v-1122h-178z" />
<glyph unicode="O" horiz-adv-x="1632" d="M78 717q0 152 51 287.5t144 238t234 163t310 60.5t310 -60.5t234 -163t144 -238t51 -287.5t-51 -287.5t-144 -238.5t-234 -163.5t-310 -60.5t-310 60.5t-234 163.5t-144 238.5t-51 287.5zM272 717v-5q0 -156 62 -284q62 -130 188.5 -211.5t294.5 -81.5q126 0 230.5 47 t172 127t104.5 185q36 102 36 217v6v6q0 115 -36 217q-37 105 -104.5 185t-172 126.5t-230.5 46.5q-127 0 -231.5 -46.5t-172.5 -126.5t-105 -185q-36 -102 -36 -217v-6z" />
<glyph unicode="P" horiz-adv-x="1187" d="M164 0v1434h514q211 0 346 -139.5t135 -356.5q0 -216 -135.5 -355t-345.5 -139h-328v-444h-186zM350 612h318q132 0 218.5 92.5t86.5 233.5q0 142 -86.5 235t-218.5 93h-318v-654z" />
<glyph unicode="Q" horiz-adv-x="1632" d="M78 717q0 152 51 287.5t144 238t234 163t310 60.5t310 -60.5t234 -163t144 -238t51 -287.5q0 -170 -61.5 -317.5t-182.5 -255t-284 -150.5l162 -209l-164 -84l-205 266h-4q-169 0 -310 60.5t-234 163.5t-144 238.5t-51 287.5zM272 717v-5q0 -156 62 -284 q62 -131 188.5 -212t294.5 -81q126 0 230.5 47t172 127t104.5 185q36 102 36 217v6v6q0 115 -36 217q-37 105 -104.5 185t-172 126.5t-230.5 46.5q-127 0 -231.5 -46.5t-172.5 -126.5t-105 -185q-36 -102 -36 -217v-6z" />
<glyph unicode="R" horiz-adv-x="1241" d="M164 0v1434h514q211 0 346 -139.5t135 -356.5q0 -167 -84.5 -292t-226.5 -175l291 -471h-213l-277 444h-299v-444h-186zM350 612h318q132 0 218.5 92.5t86.5 233.5q0 142 -86.5 235t-218.5 93h-318v-654z" />
<glyph unicode="S" horiz-adv-x="1140" d="M72 457h186q0 -151 88.5 -238.5t241.5 -87.5q135 0 208.5 61.5t73.5 174.5q0 95 -52.5 153t-176.5 101l-238 84q-288 91 -288 376q0 171 125 278t325 107q212 0 338.5 -119t126.5 -319h-186q0 132 -74.5 205.5t-210.5 73.5q-119 0 -188.5 -58.5t-69.5 -156.5 q0 -90 60.5 -150.5t193.5 -105.5l221 -78q281 -96 281 -385q0 -185 -127 -295.5t-340 -110.5q-244 0 -381 129.5t-137 360.5z" />
<glyph unicode="T" horiz-adv-x="1067" d="M12 1257v177h1043v-177h-428v-1257h-187v1257h-428z" />
<glyph unicode="U" horiz-adv-x="1300" d="M129 471v963h186v-953q0 -167 89.5 -256.5t244.5 -89.5q157 0 246.5 89.5t89.5 256.5v953h186v-963q0 -242 -140 -373t-382 -131q-241 0 -380.5 131t-139.5 373z" />
<glyph unicode="V" horiz-adv-x="1157" d="M2 1434h203l373 -1143l374 1143h203l-487 -1434h-179z" />
<glyph unicode="W" horiz-adv-x="1961" d="M6 1434h195l368 -1127l342 1127h140l342 -1127l368 1127h195l-490 -1434h-137l-348 1110l-348 -1110h-137z" />
<glyph unicode="X" horiz-adv-x="1236" d="M41 0l471 717l-471 717h211l366 -564l367 564h211l-473 -717l473 -717h-211l-367 561l-366 -561h-211z" />
<glyph unicode="Y" horiz-adv-x="1128" d="M-20 1434h217l419 -672l340 672h203l-721 -1434h-205l289 569z" />
<glyph unicode="Z" horiz-adv-x="1173" d="M47 0l750 1266h-674v168h983l-744 -1266h736v-168h-1051z" />
<glyph unicode="[" horiz-adv-x="589" d="M164 -395v1896h403v-143h-241v-1612h241v-141h-403z" />
<glyph unicode="\" horiz-adv-x="897" d="M27 1495l143 64l702 -1629l-143 -63z" />
<glyph unicode="]" horiz-adv-x="589" d="M23 -254h241v1612h-241v143h403v-1896h-403v141z" />
<glyph unicode="^" horiz-adv-x="1132" d="M102 621l398 819h127l403 -819h-201l-266 593l-266 -593h-195z" />
<glyph unicode="_" horiz-adv-x="1054" d="M0 -309h1055v-127h-1055v127z" />
<glyph unicode="`" horiz-adv-x="1228" d="M88 1339l100 105l344 -297l-100 -107z" />
<glyph unicode="a" d="M78 471q0 140 56 252.5t164 179t251 66.5q111 0 199 -52t133 -141v168h176v-944h-176v166q-44 -87 -136.5 -139t-199.5 -52q-146 0 -253.5 66.5t-160.5 177.5t-53 252zM254 471q0 -147 85.5 -241.5t229.5 -94.5q149 0 234.5 96.5t85.5 239.5t-85.5 240.5t-234.5 97.5 q-144 0 -229.5 -94.5t-85.5 -243.5z" />
<glyph unicode="b" d="M154 0v1434h176v-658q46 89 140 141t208 52q203 0 330 -138.5t127 -359.5q0 -217 -131.5 -356.5t-335.5 -139.5q-109 0 -200.5 51.5t-137.5 139.5v-166h-176zM322 471q0 -148 90 -242t231 -94q137 0 225 94.5t88 241.5q0 148 -88 243t-225 95q-141 0 -231 -94.5 t-90 -243.5z" />
<glyph unicode="c" horiz-adv-x="1062" d="M78 471q0 222 126.5 359t342.5 137q188 0 305.5 -95.5t134.5 -255.5h-178q-38 191 -264 191q-135 0 -213 -89t-78 -247q0 -157 78 -246.5t213 -89.5q225 0 264 184h178q-17 -157 -134.5 -250.5t-305.5 -93.5q-216 0 -342.5 137t-126.5 359z" />
<glyph unicode="d" d="M78 471q0 140 56 252.5t164 179t251 66.5q111 0 199 -52t133 -141v658h176v-1434h-176v166q-44 -87 -136.5 -139t-199.5 -52q-146 0 -253.5 66.5t-160.5 177.5t-53 252zM254 471q0 -147 85.5 -241.5t229.5 -94.5q149 0 234.5 96.5t85.5 239.5t-85.5 240.5t-234.5 97.5 q-144 0 -229.5 -94.5t-85.5 -243.5z" />
<glyph unicode="e" horiz-adv-x="1067" d="M78 473q0 224 127 360t338 136q199 0 322.5 -124.5t123.5 -320.5q0 -61 -4 -104h-731q3 -136 82 -212.5t215 -76.5q190 0 250 139h178q-25 -131 -144 -213t-284 -82q-218 0 -345.5 134.5t-127.5 363.5zM254 557h561q0 125 -72.5 196.5t-201.5 71.5q-127 0 -204 -73 t-83 -195z" />
<glyph unicode="f" horiz-adv-x="718" d="M43 795v149h201v164q0 84 22 148t54 99t75.5 56.5t78.5 28t71 6.5q84 0 143 -23v-151q-54 14 -98 14q-26 0 -45.5 -2.5t-44 -13t-40.5 -28t-27 -51t-11 -79.5v-168h266v-149h-266v-795h-178v795h-201z" />
<glyph unicode="g" d="M78 471q0 214 131.5 356t339.5 142q110 0 199 -51.5t133 -141.5v168h176v-919q0 -271 -164 -398q-119 -88 -326 -88q-206 0 -336 92q-63 45 -99.5 109.5t-39.5 140.5h187q9 -87 82.5 -139.5t203.5 -52.5q157 0 236.5 78.5t79.5 244.5v154q-43 -87 -137 -139t-199 -52 q-212 0 -339.5 141t-127.5 355zM254 471q0 -146 88 -241t227 -95q145 0 232.5 96.5t87.5 239.5q0 144 -87.5 241t-232.5 97q-140 0 -227.5 -95.5t-87.5 -242.5z" />
<glyph unicode="h" horiz-adv-x="1159" d="M156 0v1434h178v-664q39 93 124.5 146t205.5 53q174 0 263 -98.5t89 -288.5v-582h-178v504q0 160 -56 235.5t-182 75.5q-129 0 -197.5 -84.5t-68.5 -230.5v-500h-178z" />
<glyph unicode="i" horiz-adv-x="483" d="M96 1249q0 61 41.5 103.5t104.5 42.5q62 0 102.5 -42.5t40.5 -103.5t-40.5 -102t-102.5 -41q-64 0 -105 41t-41 102zM154 0v944h176v-944h-176z" />
<glyph unicode="j" horiz-adv-x="491" d="M-41 -264q41 -15 96 -15q105 0 105 127v1096h178v-1145q0 -119 -65 -183.5t-183 -64.5q-86 0 -131 23v162zM104 1249q0 61 41.5 103.5t104.5 42.5q62 0 102.5 -42.5t40.5 -103.5t-40.5 -102t-102.5 -41q-64 0 -105 41t-41 102z" />
<glyph unicode="k" horiz-adv-x="1034" d="M154 0v1434h176v-924l420 434h227l-457 -457l457 -487h-234l-413 446v-446h-176z" />
<glyph unicode="l" horiz-adv-x="485" d="M154 0v1434h178v-1434h-178z" />
<glyph unicode="m" horiz-adv-x="1703" d="M154 0v944h178v-172q29 84 102 140.5t180 56.5q122 0 198 -53.5t103 -149.5q32 88 115.5 145.5t190.5 57.5q92 0 159.5 -28.5t106 -80t56.5 -116.5t18 -146v-598h-179v563q0 252 -204 252q-109 0 -170.5 -79t-61.5 -244v-492h-178v549q0 266 -203 266q-111 0 -172 -80.5 t-61 -242.5v-492h-178z" />
<glyph unicode="n" horiz-adv-x="1155" d="M154 0v944h178v-174q39 93 124.5 146t205.5 53q173 0 261.5 -98.5t88.5 -288.5v-582h-176v504q0 160 -56.5 235.5t-181.5 75.5q-129 0 -197.5 -84.5t-68.5 -230.5v-500h-178z" />
<glyph unicode="o" horiz-adv-x="1136" d="M78 471q0 213 133.5 355.5t357.5 142.5q149 0 262 -67t171.5 -179.5t58.5 -251.5q0 -138 -58.5 -250t-172 -179t-261.5 -67q-112 0 -205.5 39t-155.5 106.5t-96 157.5t-34 193zM254 471q0 -145 85 -240.5t230 -95.5t229.5 95t84.5 241q0 147 -84.5 242.5t-229.5 95.5 t-230 -95.5t-85 -242.5z" />
<glyph unicode="p" d="M154 -436v1380h176v-168q46 89 140 141t208 52q203 0 330 -138.5t127 -359.5q0 -217 -131.5 -356.5t-335.5 -139.5q-109 0 -200.5 51.5t-137.5 139.5v-602h-176zM322 471q0 -148 90 -242t231 -94q137 0 225 94.5t88 241.5q0 148 -88 243t-225 95q-141 0 -231 -94.5 t-90 -243.5z" />
<glyph unicode="q" d="M78 471q0 140 56 252.5t164 179t251 66.5q111 0 199 -52t133 -141v168h176v-1380h-176v602q-44 -87 -136.5 -139t-199.5 -52q-146 0 -253.5 66.5t-160.5 177.5t-53 252zM254 471q0 -147 85.5 -241.5t229.5 -94.5q149 0 234.5 96.5t85.5 239.5t-85.5 240.5t-234.5 97.5 q-144 0 -229.5 -94.5t-85.5 -243.5z" />
<glyph unicode="r" horiz-adv-x="737" d="M154 0v944h178v-215q26 114 103 171.5t173 57.5q55 0 86 -8v-164q-36 7 -88 7q-90 0 -153 -52t-92 -136.5t-29 -192.5v-412h-178z" />
<glyph unicode="s" horiz-adv-x="919" d="M78 283h176q0 -71 61.5 -117.5t163.5 -46.5q79 0 126.5 36.5t47.5 98.5q0 51 -30 82.5t-111 52.5l-193 49q-104 29 -158.5 95.5t-54.5 164.5q0 120 99.5 195.5t253.5 75.5q168 0 265 -76.5t97 -208.5h-174q0 68 -51.5 107.5t-142.5 39.5q-75 0 -122.5 -33.5t-47.5 -90.5 q0 -46 31.5 -78.5t105.5 -53.5l194 -53q105 -30 162.5 -97.5t57.5 -164.5q0 -134 -98 -209.5t-267 -75.5q-171 0 -281 88t-110 220z" />
<glyph unicode="t" horiz-adv-x="729" d="M49 795v149h170v299h178v-299h238v-149h-238v-443q0 -65 10.5 -107.5t32.5 -63t46.5 -27.5t62.5 -7q61 0 119 13v-158q-61 -14 -160 -14q-42 0 -74 4t-75 23t-71 51.5t-48.5 96t-20.5 150.5v482h-170z" />
<glyph unicode="u" horiz-adv-x="1150" d="M143 362v582h179v-541q0 -274 229 -274q70 0 123.5 25t84 68t45.5 95t15 111v516h178v-944h-178v172q-40 -91 -121.5 -144t-195.5 -53q-164 0 -261.5 99t-97.5 288z" />
<glyph unicode="v" horiz-adv-x="987" d="M6 944h191l297 -706l299 706h190l-416 -944h-145z" />
<glyph unicode="w" horiz-adv-x="1525" d="M16 944h195l225 -690l232 690h190l229 -690l228 690h194l-348 -944h-151l-248 725l-248 -725h-149z" />
<glyph unicode="x" horiz-adv-x="993" d="M39 0l354 475l-350 469h219l234 -338l235 338h219l-350 -469l354 -475h-219l-239 346l-238 -346h-219z" />
<glyph unicode="y" horiz-adv-x="1161" d="M143 -119h179q6 -92 63 -142t182 -50t193.5 74.5t68.5 230.5v176q-43 -89 -127 -141t-200 -52q-179 0 -269 108.5t-90 295.5v563h176v-526q0 -136 55 -209.5t187 -73.5q129 0 198.5 93.5t69.5 230.5v485h177v-962q0 -222 -127 -340q-119 -103 -310 -103q-203 0 -319 99 q-104 87 -107 243z" />
<glyph unicode="z" horiz-adv-x="901" d="M27 0l553 793h-514v151h813l-557 -794h530v-150h-825z" />
<glyph unicode="{" horiz-adv-x="643" d="M47 479v148q27 0 58 10.5t61 31.5t50 58.5t20 85.5v404q0 135 82.5 209.5t191.5 74.5h121v-141h-96q-71 0 -104.5 -49.5t-33.5 -126.5v-393q0 -61 -20 -107t-52.5 -72t-61 -39.5t-58.5 -19.5q30 -6 58.5 -19.5t61 -39.5t52.5 -72t20 -107v-393q0 -77 33.5 -126.5 t104.5 -49.5h96v-141h-121q-109 0 -191.5 74.5t-82.5 209.5v404q0 48 -20 85.5t-50 58.5t-61 31.5t-58 10.5z" />
<glyph unicode="|" horiz-adv-x="466" d="M164 -393v1894h139v-1894h-139z" />
<glyph unicode="}" horiz-adv-x="643" d="M12 -254h97q72 0 105.5 50t33.5 126v393q0 60 20 106.5t52.5 72.5t60.5 39.5t57 19.5q-29 6 -57 19.5t-60.5 39.5t-52.5 72.5t-20 106.5v393q0 76 -33.5 126t-105.5 50h-97v141h121q69 0 130 -29.5t104 -96t43 -158.5v-404q0 -48 19.5 -85.5t50 -58.5t61 -31.5 t57.5 -10.5v-148q-27 0 -57.5 -10.5t-61 -31.5t-50 -58.5t-19.5 -85.5v-404q0 -92 -43 -158.5t-104 -96t-130 -29.5h-121v141z" />
<glyph unicode="~" horiz-adv-x="1112" d="M102 438v158q46 57 104.5 84t115.5 27q83 0 241 -66q13 -6 46.5 -20t51 -21t43 -16t45 -13t35.5 -4q106 0 226 111v-154q-47 -59 -107 -87.5t-121 -28.5q-83 0 -225 71q-140 68 -244 68q-106 0 -211 -109z" />
<glyph unicode="&#xa1;" horiz-adv-x="546" d="M125 862q0 62 42.5 106t104.5 44q63 0 107.5 -44t44.5 -106q0 -61 -44.5 -104t-107.5 -43t-105 42.5t-42 104.5zM184 -436v1003h178v-1003h-178z" />
<glyph unicode="&#xa2;" horiz-adv-x="1062" d="M78 694q0 204 108 337t295 153v209h135v-209q161 -17 258.5 -109t112.5 -237h-178q-38 192 -264 192q-135 0 -213 -89.5t-78 -246.5q0 -158 78 -248t213 -90q225 0 264 187h178q-15 -141 -113 -232t-258 -108v-203h-135v203q-188 22 -295.5 154.5t-107.5 336.5z" />
<glyph unicode="&#xa3;" horiz-adv-x="1050" d="M74 678v137h129v160q0 223 113 332.5t302 109.5q193 0 302.5 -105.5t109.5 -291.5h-186q0 116 -57 180t-169 64q-116 0 -172.5 -70t-56.5 -223v-156h346v-137h-346v-150q0 -125 -29.5 -221t-72.5 -139h684v-168h-891v125q123 114 123 367v186h-129z" />
<glyph unicode="&#xa4;" horiz-adv-x="1202" d="M61 332l140 139q-88 131 -88 287t88 284l-138 140l111 112l137 -139q123 90 289 90q168 0 293 -88l135 135l113 -110l-137 -138q90 -129 90 -286q0 -161 -90 -287l137 -137l-113 -113l-135 137q-125 -88 -293 -88q-162 0 -287 88l-139 -137zM291 758q0 -137 86.5 -233.5 t222.5 -96.5q141 0 228 96t87 234t-87 233.5t-228 95.5q-136 0 -222.5 -96t-86.5 -233z" />
<glyph unicode="&#xa5;" horiz-adv-x="1124" d="M20 1393h209l332 -676l334 676h209l-442 -828h292v-125h-297v-139h297v-125h-297v-176h-190v176h-297v125h297v139h-297v125h293z" />
<glyph unicode="&#xa6;" horiz-adv-x="466" d="M164 -393v872h139v-872h-139zM164 662v839h139v-839h-139z" />
<glyph unicode="&#xa7;" horiz-adv-x="1130" d="M104 -76h191q0 -104 65 -164.5t193 -60.5q115 0 178.5 49t63.5 139q0 56 -23.5 100.5t-63 74.5t-90.5 55.5t-107.5 47.5t-113 44.5t-107.5 52.5t-90.5 67t-63 92.5t-23.5 123.5q0 182 190 272q-162 109 -162 301q0 157 120 253.5t314 96.5q220 0 335.5 -105.5 t115.5 -279.5h-195q0 106 -63.5 168t-189.5 62q-114 0 -178 -50t-64 -141q0 -55 23.5 -99t62.5 -74t90 -54.5t107.5 -45.5t113 -43.5t107.5 -51.5t90 -65t62.5 -89.5t23.5 -120.5q0 -186 -197 -276q170 -114 170 -314q0 -164 -118.5 -256t-317.5 -92q-218 0 -333.5 105.5 t-115.5 277.5zM299 555q0 -29 9 -54.5t23 -44.5t38 -37.5t46.5 -31.5t57 -28.5t61 -25.5t66.5 -25.5t66 -26.5q168 60 168 188q0 33 -10.5 60.5t-33 50t-46 39t-62.5 34t-68 28.5t-77.5 29t-77.5 29q-160 -57 -160 -184z" />
<glyph unicode="&#xa8;" horiz-adv-x="1228" d="M125 1241q0 57 40 97t97 40q58 0 97.5 -40t39.5 -97t-40 -97t-97 -40t-97 40t-40 97zM535 1241q0 57 40 97t97 40t97 -40t40 -97t-40 -97t-97 -40t-97 40t-40 97z" />
<glyph unicode="&#xa9;" horiz-adv-x="1632" d="M78 717q0 157 51.5 294t144.5 238.5t233 160t308 58.5t308.5 -58.5t234 -160t145 -238.5t51.5 -294q0 -125 -32.5 -238.5t-96 -207t-152 -162t-206 -106.5t-252.5 -38q-168 0 -308 58.5t-233 160.5t-144.5 239t-51.5 294zM221 717q0 -173 70.5 -314.5t207.5 -227 t316 -85.5t316 85.5t207.5 227t70.5 314.5t-70.5 314.5t-207.5 226.5t-316 85t-316 -85t-207.5 -226.5t-70.5 -314.5zM403 717q0 114 49 210t147 156t226 60q156 0 252.5 -80t116.5 -207h-125q-18 80 -82.5 129t-163.5 49q-135 0 -216 -92.5t-81 -224.5t81 -225t216 -93 q99 0 163.5 49.5t82.5 129.5h125q-20 -127 -116.5 -207t-252.5 -80q-128 0 -226 60t-147 156t-49 210z" />
<glyph unicode="&#xaa;" horiz-adv-x="755" d="M47 1094q0 125 78.5 207.5t202.5 82.5q72 0 125 -30.5t79 -81.5v96h146v-549h-146v96q-25 -50 -80 -79t-126 -29q-127 0 -203 81t-76 206zM195 1094q0 -72 47.5 -120t122.5 -48q77 0 125.5 49t48.5 119q0 71 -48 119.5t-126 48.5q-75 0 -122.5 -48t-47.5 -120z" />
<glyph unicode="&#xab;" horiz-adv-x="1019" d="M12 535l424 393l101 -103l-312 -290l312 -291l-101 -103zM467 535l424 393l100 -103l-311 -290l311 -291l-100 -103z" />
<glyph unicode="&#xac;" horiz-adv-x="1032" d="M109 713v159h815v-464h-176v305h-639z" />
<glyph unicode="&#xad;" horiz-adv-x="839" d="M109 457v159h624v-159h-624z" />
<glyph unicode="&#xae;" horiz-adv-x="1232" d="M78 920q0 153 64 277t187.5 197.5t286.5 73.5q123 0 225.5 -43t171 -117t106.5 -174t38 -214q0 -153 -64 -277t-188.5 -198t-288.5 -74q-163 0 -286.5 74t-187.5 198t-64 277zM184 920q0 -127 51.5 -230t151 -165t229.5 -62q197 0 316 131t119 326t-119 325.5t-316 130.5 q-130 0 -229.5 -61.5t-151 -164.5t-51.5 -230zM424 637v580h225q87 0 142 -58.5t55 -140.5q0 -64 -34 -113t-95 -71l125 -197h-101l-114 186h-113v-186h-90zM516 901h127q51 0 82 34t31 83q0 51 -31 85t-82 34h-127v-236z" />
<glyph unicode="&#xaf;" horiz-adv-x="1228" d="M139 1137v143h652v-143h-652z" />
<glyph unicode="&#xb0;" horiz-adv-x="733" d="M51 1102q0 133 91 224t225 91q133 0 224 -90.5t91 -224.5q0 -132 -91 -224t-224 -92t-224.5 92t-91.5 224zM193 1102q0 -76 47.5 -127t126.5 -51t126.5 51t47.5 127t-47.5 127t-126.5 51t-126.5 -51t-47.5 -127z" />
<glyph unicode="&#xb1;" horiz-adv-x="1032" d="M109 291v158h815v-158h-815zM109 797v157h317v230h178v-230h320v-157h-320v-226h-178v226h-317z" />
<glyph unicode="&#xb2;" horiz-adv-x="778" d="M70 819q0 143 49.5 228.5t165.5 142.5l137 67q106 49 106 148q0 54 -35 85.5t-94 31.5q-72 0 -112.5 -43t-40.5 -119h-156q0 129 84.5 205.5t224.5 76.5q132 0 209.5 -61.5t77.5 -167.5q0 -162 -164 -244l-129 -65q-67 -32 -96.5 -66.5t-38.5 -91.5h426v-127h-614z" />
<glyph unicode="&#xb3;" horiz-adv-x="790" d="M78 1073h155q0 -70 43 -109.5t117 -39.5q70 0 111 35t41 92q0 62 -40.5 95.5t-117.5 33.5h-78v116h78q72 0 110 31t38 88q0 51 -39 82t-101 31q-67 0 -107 -35t-40 -96h-154q0 111 81.5 178t221.5 67q132 0 212.5 -60t80.5 -159q0 -70 -42 -118t-124 -66 q79 -10 128.5 -64t49.5 -131q0 -109 -84.5 -175t-226.5 -66q-149 0 -231 70.5t-82 199.5z" />
<glyph unicode="&#xb4;" horiz-adv-x="1228" d="M225 1147l344 297l101 -105l-344 -299z" />
<glyph unicode="&#xb5;" horiz-adv-x="1161" d="M154 -436v1380h178v-541q0 -274 229 -274q70 0 123.5 25t84 68t45.5 95t15 111v516h179v-944h-179v172q-40 -91 -121.5 -144t-195.5 -53q-116 0 -180 64v-475h-178z" />
<glyph unicode="&#xb6;" horiz-adv-x="1366" d="M102 1065q0 74 19.5 135.5t50.5 102.5t75.5 72t89 48t97 28t93.5 14t85 3h652v-147h-109v-1624h-168v1622h-274v-1622h-168v977q-198 0 -320.5 99.5t-122.5 291.5z" />
<glyph unicode="&#xb7;" horiz-adv-x="585" d="M143 641q0 61 43 104t105 43q63 0 107 -43t44 -104q0 -62 -44 -105.5t-107 -43.5q-61 0 -104.5 43.5t-43.5 105.5z" />
<glyph unicode="&#xb8;" horiz-adv-x="1228" d="M111 -295h94q1 -29 24 -47t56 -18q41 0 64.5 25t23.5 71q0 45 -22 69.5t-62 24.5q-55 0 -80 -41h-82v211h96v-129q28 31 94 31q65 0 109.5 -44t44.5 -120q0 -78 -48 -128t-136 -50q-76 0 -123 38.5t-53 106.5z" />
<glyph unicode="&#xb9;" horiz-adv-x="565" d="M63 1366v117q120 0 162.5 32.5t42.5 110.5h131v-807h-147v547h-189z" />
<glyph unicode="&#xba;" horiz-adv-x="729" d="M49 1096q0 126 85.5 207t230.5 81q144 0 230.5 -81.5t86.5 -206.5q0 -127 -86.5 -209t-230.5 -82q-145 0 -230.5 82t-85.5 209zM190 1096q0 -73 48.5 -121.5t126.5 -48.5t124 48t46 122q0 72 -46 119t-124 47t-126.5 -47t-48.5 -119z" />
<glyph unicode="&#xbb;" horiz-adv-x="1019" d="M29 244l311 291l-311 290l100 103l424 -393l-424 -394zM483 244l312 291l-312 290l101 103l424 -393l-424 -394z" />
<glyph unicode="&#xbc;" horiz-adv-x="1669" d="M63 1133v116q120 0 162.5 33t42.5 111h131v-807h-147v547h-189zM176 37l967 1397l119 -78l-967 -1397zM979 246v561h151v-430h199v223h152v-223h116v-131h-116v-246h-152v246h-350z" />
<glyph unicode="&#xbd;" horiz-adv-x="1628" d="M63 1133v116q120 0 162.5 33t42.5 111h131v-807h-147v547h-189zM176 37l967 1397l119 -78l-967 -1397zM920 0q0 143 49.5 228.5t165.5 142.5l137 67q106 49 106 148q0 54 -35 85t-94 31q-72 0 -112.5 -42.5t-40.5 -118.5h-156q0 129 84.5 205.5t224.5 76.5 q132 0 209.5 -61.5t77.5 -167.5q0 -162 -164 -244l-129 -65q-67 -32 -96.5 -66.5t-38.5 -91.5h426v-127h-614z" />
<glyph unicode="&#xbe;" horiz-adv-x="1859" d="M78 840h155q0 -70 43 -110t117 -40q70 0 111 35t41 92q0 62 -40.5 95.5t-117.5 33.5h-78v117h78q72 0 110 31t38 88q0 51 -39 81.5t-101 30.5q-67 0 -107 -35t-40 -96h-154q0 111 81.5 178.5t221.5 67.5q132 0 212.5 -60t80.5 -159q0 -70 -42 -118t-124 -66 q79 -10 128.5 -64t49.5 -131q0 -109 -84.5 -175.5t-226.5 -66.5q-149 0 -231 71t-82 200zM365 37l966 1397l119 -78l-967 -1397zM1169 246v561h152v-430h199v223h151v-223h117v-131h-117v-246h-151v246h-351z" />
<glyph unicode="&#xbf;" horiz-adv-x="966" d="M51 -39q0 123 54 208t153 161l88 63q57 43 76.5 81t19.5 104v34h179v-32q0 -103 -27.5 -164.5t-108.5 -120.5l-102 -72q-139 -99 -139 -256q0 -103 64 -166t175 -63q127 0 203 76t76 217h186q0 -214 -126 -335.5t-345 -121.5q-201 0 -313.5 107t-112.5 280zM381 907 q0 62 44 106t107 44q61 0 104.5 -44t43.5 -106t-43.5 -105.5t-104.5 -43.5q-63 0 -107 43.5t-44 105.5z" />
<glyph unicode="&#xc0;" horiz-adv-x="1208" d="M37 0l485 1434h164l485 -1434h-200l-70 219h-596l-67 -219h-201zM340 1710l63 121l447 -211l-66 -123zM358 387h492l-248 789z" />
<glyph unicode="&#xc1;" horiz-adv-x="1208" d="M37 0l485 1434h164l485 -1434h-200l-70 219h-596l-67 -219h-201zM356 1620l447 211l63 -121l-444 -213zM358 387h492l-248 789z" />
<glyph unicode="&#xc2;" horiz-adv-x="1208" d="M37 0l485 1434h164l485 -1434h-200l-70 219h-596l-67 -219h-201zM322 1589l276 238l279 -238l-95 -84l-184 166l-182 -166zM358 387h492l-248 789z" />
<glyph unicode="&#xc3;" horiz-adv-x="1208" d="M37 0l485 1434h164l485 -1434h-200l-70 219h-596l-67 -219h-201zM213 1616q94 160 215 160q45 0 93 -20t83 -43.5t77.5 -43.5t76.5 -20q47 0 85.5 21t78.5 77l73 -80q-83 -150 -225 -154q-48 -3 -97 16t-83.5 44t-75.5 46t-74 21q-44 0 -77.5 -19t-73.5 -75zM358 387h492 l-248 789z" />
<glyph unicode="&#xc4;" horiz-adv-x="1208" d="M37 0l485 1434h164l485 -1434h-200l-70 219h-596l-67 -219h-201zM227 1667q0 57 39 97t96 40q58 0 98 -40t40 -97t-40 -97t-98 -40q-57 0 -96 40t-39 97zM358 387h492l-248 789zM711 1667q0 57 39.5 97t95.5 40q58 0 98.5 -40t40.5 -97t-40.5 -97t-98.5 -40 q-56 0 -95.5 40t-39.5 97z" />
<glyph unicode="&#xc5;" horiz-adv-x="1208" d="M37 0l461 1364q-66 30 -107 91.5t-41 133.5q0 106 74 179t180 73q108 0 185 -75t77 -177q0 -74 -42.5 -135.5t-112.5 -91.5l460 -1362h-200l-70 219h-596l-67 -219h-201zM358 387h492l-248 789zM465 1589q0 -57 41 -97t98 -40q61 0 102.5 40t41.5 99q0 60 -41.5 101 t-102.5 41q-57 0 -98 -42t-41 -102z" />
<glyph unicode="&#xc6;" horiz-adv-x="1722" d="M27 0l712 1434h844v-168h-565v-469h565v-168h-565v-461h565v-168h-754v227h-491l-109 -227h-202zM414 387h415v875z" />
<glyph unicode="&#xc7;" horiz-adv-x="1585" d="M78 717q0 160 51 297t144.5 237.5t234 157.5t311.5 57q282 0 463.5 -139.5t222.5 -363.5h-205q-41 157 -163.5 246t-315.5 89q-256 0 -402.5 -161t-146.5 -420t146.5 -420.5t402.5 -161.5q193 0 315.5 89.5t163.5 246.5h205q-39 -214 -207.5 -352t-429.5 -150v-98 q28 31 95 31q65 0 109 -44t44 -120q0 -78 -48 -128t-136 -50q-76 0 -123 38.5t-53 106.5h94q1 -29 24 -47t56 -18q41 0 64.5 25t23.5 71q0 45 -22 69.5t-62 24.5q-55 0 -80 -41h-82v180q-213 10 -372 110.5t-240.5 265.5t-81.5 372z" />
<glyph unicode="&#xc8;" horiz-adv-x="1116" d="M164 0v1434h815v-168h-629v-469h629v-168h-629v-461h629v-168h-815zM319 1710l64 121l446 -211l-65 -123z" />
<glyph unicode="&#xc9;" horiz-adv-x="1116" d="M164 0v1434h815v-168h-629v-469h629v-168h-629v-461h629v-168h-815zM336 1620l446 211l64 -121l-445 -213z" />
<glyph unicode="&#xca;" horiz-adv-x="1116" d="M164 0v1434h815v-168h-629v-469h629v-168h-629v-461h629v-168h-815zM299 1589l276 238l279 -238l-94 -84l-185 166l-182 -166z" />
<glyph unicode="&#xcb;" horiz-adv-x="1116" d="M164 0v1434h815v-168h-629v-469h629v-168h-629v-461h629v-168h-815zM205 1667q0 57 39 97t96 40q58 0 97.5 -40t39.5 -97t-39.5 -97t-97.5 -40q-57 0 -96 40t-39 97zM688 1667q0 57 39.5 97t95.5 40q58 0 99 -40t41 -97t-41 -97t-99 -40q-56 0 -95.5 40t-39.5 97z" />
<glyph unicode="&#xcc;" horiz-adv-x="514" d="M66 1694l79 121l306 -183l-80 -121zM164 0v1434h186v-1434h-186z" />
<glyph unicode="&#xcd;" horiz-adv-x="514" d="M51 1626l330 203l82 -117l-332 -203zM164 0v1434h186v-1434h-186z" />
<glyph unicode="&#xce;" horiz-adv-x="514" d="M31 1612l225 190l227 -190l-84 -90l-143 125l-143 -125zM164 0v1434h186v-1434h-186z" />
<glyph unicode="&#xcf;" horiz-adv-x="514" d="M-14 1665q0 56 36 91.5t91 35.5t91 -35.5t36 -91.5t-36 -91.5t-91 -35.5t-91 35.5t-36 91.5zM164 0v1434h186v-1434h-186zM276 1665q0 56 36 91.5t91 35.5t91 -35.5t36 -91.5t-36 -91.5t-91 -35.5t-91 35.5t-36 91.5z" />
<glyph unicode="&#xd0;" horiz-adv-x="1415" d="M2 641v158h162v635h457q139 0 258 -39t204.5 -106.5t146.5 -158.5t90.5 -196t29.5 -217t-29.5 -217t-90.5 -196t-146.5 -158.5t-204.5 -106.5t-258 -39h-457v641h-162zM350 168h256q109 0 201 30.5t155.5 82.5t108 122.5t65.5 149.5t21 164t-21 164t-65.5 149.5 t-108 122.5t-155.5 82.5t-201 30.5h-256v-467h273v-158h-273v-473z" />
<glyph unicode="&#xd1;" horiz-adv-x="1349" d="M164 0v1434h198l646 -1123v1123h178v-1434h-197l-647 1122v-1122h-178zM283 1616q94 160 215 160q45 0 93 -20t82.5 -43.5t77 -43.5t76.5 -20q47 0 85.5 21t78.5 77l74 -80q-83 -150 -225 -154q-48 -3 -97 16t-83.5 44t-75.5 46t-74 21q-44 0 -78 -19t-74 -75z" />
<glyph unicode="&#xd2;" horiz-adv-x="1632" d="M78 717q0 152 51 287.5t144 238t234 163t310 60.5t310 -60.5t234 -163t144 -238t51 -287.5t-51 -287.5t-144 -238.5t-234 -163.5t-310 -60.5t-310 60.5t-234 163.5t-144 238.5t-51 287.5zM272 717q-1 -159 61.5 -289.5t189 -211.5t294.5 -81q126 0 230.5 47t172 127 t104.5 185t36 223q1 118 -36 223t-104.5 185t-172 126.5t-230.5 46.5q-127 0 -231.5 -46.5t-172.5 -126.5t-105 -185t-36 -223zM553 1710l63 121l447 -211l-66 -123z" />
<glyph unicode="&#xd3;" horiz-adv-x="1632" d="M78 717q0 152 51 287.5t144 238t234 163t310 60.5t310 -60.5t234 -163t144 -238t51 -287.5t-51 -287.5t-144 -238.5t-234 -163.5t-310 -60.5t-310 60.5t-234 163.5t-144 238.5t-51 287.5zM272 717q-1 -159 61.5 -289.5t189 -211.5t294.5 -81q126 0 230.5 47t172 127 t104.5 185t36 223q1 118 -36 223t-104.5 185t-172 126.5t-230.5 46.5q-127 0 -231.5 -46.5t-172.5 -126.5t-105 -185t-36 -223zM567 1620l447 211l63 -121l-444 -213z" />
<glyph unicode="&#xd4;" horiz-adv-x="1632" d="M78 717q0 152 51 287.5t144 238t234 163t310 60.5t310 -60.5t234 -163t144 -238t51 -287.5t-51 -287.5t-144 -238.5t-234 -163.5t-310 -60.5t-310 60.5t-234 163.5t-144 238.5t-51 287.5zM272 717q-1 -159 61.5 -289.5t189 -211.5t294.5 -81q126 0 230.5 47t172 127 t104.5 185t36 223q1 118 -36 223t-104.5 185t-172 126.5t-230.5 46.5q-127 0 -231.5 -46.5t-172.5 -126.5t-105 -185t-36 -223zM532 1589l277 238l278 -238l-94 -84l-184 166l-182 -166z" />
<glyph unicode="&#xd5;" horiz-adv-x="1632" d="M78 717q0 152 51 287.5t144 238t234 163t310 60.5t310 -60.5t234 -163t144 -238t51 -287.5t-51 -287.5t-144 -238.5t-234 -163.5t-310 -60.5t-310 60.5t-234 163.5t-144 238.5t-51 287.5zM272 717q-1 -159 61.5 -289.5t189 -211.5t294.5 -81q126 0 230.5 47t172 127 t104.5 185t36 223q1 118 -36 223t-104.5 185t-172 126.5t-230.5 46.5q-127 0 -231.5 -46.5t-172.5 -126.5t-105 -185t-36 -223zM424 1616q94 160 215 160q45 0 93 -20t83 -43.5t77.5 -43.5t76.5 -20q47 0 85.5 21t78.5 77l73 -80q-83 -150 -225 -154q-48 -3 -97 16t-83.5 44 t-75.5 46t-74 21q-44 0 -77.5 -19t-73.5 -75z" />
<glyph unicode="&#xd6;" horiz-adv-x="1632" d="M78 717q0 152 51 287.5t144 238t234 163t310 60.5t310 -60.5t234 -163t144 -238t51 -287.5t-51 -287.5t-144 -238.5t-234 -163.5t-310 -60.5t-310 60.5t-234 163.5t-144 238.5t-51 287.5zM272 717q-1 -159 61.5 -289.5t189 -211.5t294.5 -81q126 0 230.5 47t172 127 t104.5 185t36 223q1 118 -36 223t-104.5 185t-172 126.5t-230.5 46.5q-127 0 -231.5 -46.5t-172.5 -126.5t-105 -185t-36 -223zM438 1667q0 57 39 97t96 40q58 0 98 -40t40 -97t-40 -97t-98 -40q-57 0 -96 40t-39 97zM922 1667q0 57 39.5 97t95.5 40q58 0 98.5 -40t40.5 -97 t-40.5 -97t-98.5 -40q-56 0 -95.5 40t-39.5 97z" />
<glyph unicode="&#xd7;" horiz-adv-x="995" d="M109 367l276 278l-276 277l110 112l279 -278l278 278l113 -110l-279 -279l277 -278l-113 -113l-276 278l-277 -276z" />
<glyph unicode="&#xd8;" horiz-adv-x="1632" d="M78 717q0 152 51 287.5t144 238t234 163t310 60.5q121 0 236 -32l69 163l125 -55l-67 -160q178 -94 277 -272t99 -393q0 -152 -51 -287.5t-144 -238.5t-234 -163.5t-310 -60.5q-121 0 -229 31l-74 -170l-127 55l72 166q-181 94 -281 272.5t-100 395.5zM272 717 q-2 -161 65.5 -295.5t190.5 -210.5l457 1065q-80 22 -168 22q-127 0 -231.5 -46.5t-172.5 -126.5t-105 -185t-36 -223zM655 158q80 -23 162 -23q126 0 230.5 47t172 127t104.5 185t36 223q2 160 -64 293t-186 209z" />
<glyph unicode="&#xd9;" horiz-adv-x="1300" d="M129 471v963h186v-953q0 -167 89.5 -256.5t244.5 -89.5q157 0 246.5 89.5t89.5 256.5v953h186v-963q0 -242 -140 -373t-382 -131q-241 0 -380.5 131t-139.5 373zM387 1710l64 121l446 -211l-66 -123z" />
<glyph unicode="&#xda;" horiz-adv-x="1300" d="M129 471v963h186v-953q0 -167 89.5 -256.5t244.5 -89.5q157 0 246.5 89.5t89.5 256.5v953h186v-963q0 -242 -140 -373t-382 -131q-241 0 -380.5 131t-139.5 373zM401 1620l447 211l63 -121l-444 -213z" />
<glyph unicode="&#xdb;" horiz-adv-x="1300" d="M129 471v963h186v-953q0 -167 89.5 -256.5t244.5 -89.5q157 0 246.5 89.5t89.5 256.5v953h186v-963q0 -242 -140 -373t-382 -131q-241 0 -380.5 131t-139.5 373zM367 1589l276 238l279 -238l-95 -84l-184 166l-182 -166z" />
<glyph unicode="&#xdc;" horiz-adv-x="1300" d="M129 471v963h186v-953q0 -167 89.5 -256.5t244.5 -89.5q157 0 246.5 89.5t89.5 256.5v953h186v-963q0 -242 -140 -373t-382 -131q-241 0 -380.5 131t-139.5 373zM272 1667q0 57 39.5 97t96.5 40q58 0 97.5 -40t39.5 -97t-39.5 -97t-97.5 -40q-57 0 -96.5 40t-39.5 97z M756 1667q0 57 39.5 97t95.5 40q58 0 98.5 -40t40.5 -97t-40.5 -97t-98.5 -40q-56 0 -95.5 40t-39.5 97z" />
<glyph unicode="&#xdd;" horiz-adv-x="1128" d="M-20 1434h217l419 -672l340 672h203l-721 -1434h-205l289 569zM342 1620l446 211l64 -121l-444 -213z" />
<glyph unicode="&#xde;" horiz-adv-x="1189" d="M164 0v1434h186v-230h330q145 0 256 -67t168 -177t57 -243q0 -132 -57 -242.5t-168 -178t-256 -67.5h-330v-229h-186zM350 397h318q136 0 221.5 93t85.5 227t-85.5 226.5t-221.5 92.5h-318v-639z" />
<glyph unicode="&#xdf;" horiz-adv-x="1159" d="M152 0v1020q0 198 118.5 322t325.5 124q205 0 320.5 -105.5t115.5 -277.5q0 -133 -78.5 -222.5t-199.5 -108.5q137 -12 225 -124t88 -255q0 -97 -35.5 -174t-97 -125t-141.5 -73.5t-172 -25.5q-110 0 -187 25v156q76 -23 170 -23q129 0 207 67.5t78 194.5q0 48 -16.5 94 t-49.5 87.5t-93 66.5t-138 25h-119v159h98q142 0 212.5 66t70.5 174q0 106 -69.5 173t-188.5 67q-128 0 -198 -79.5t-70 -207.5v-1020h-176z" />
<glyph unicode="&#xe0;" d="M78 471q0 140 56 252.5t164 179t251 66.5q111 0 199 -52t133 -141v168h176v-944h-176v166q-44 -87 -136.5 -139t-199.5 -52q-146 0 -253.5 66.5t-160.5 177.5t-53 252zM254 471q0 -147 85.5 -241.5t229.5 -94.5q149 0 234.5 96.5t85.5 239.5t-85.5 240.5t-234.5 97.5 q-144 0 -229.5 -94.5t-85.5 -243.5zM297 1339l100 105l344 -297l-100 -107z" />
<glyph unicode="&#xe1;" d="M78 471q0 140 56 252.5t164 179t251 66.5q111 0 199 -52t133 -141v168h176v-944h-176v166q-44 -87 -136.5 -139t-199.5 -52q-146 0 -253.5 66.5t-160.5 177.5t-53 252zM254 471q0 -147 85.5 -241.5t229.5 -94.5q149 0 234.5 96.5t85.5 239.5t-85.5 240.5t-234.5 97.5 q-144 0 -229.5 -94.5t-85.5 -243.5zM406 1147l344 297l100 -105l-344 -299z" />
<glyph unicode="&#xe2;" d="M78 471q0 140 56 252.5t164 179t251 66.5q111 0 199 -52t133 -141v168h176v-944h-176v166q-44 -87 -136.5 -139t-199.5 -52q-146 0 -253.5 66.5t-160.5 177.5t-53 252zM248 1133l327 303l328 -303l-106 -103l-222 209l-223 -209zM254 471q0 -147 85.5 -241.5t229.5 -94.5 q149 0 234.5 96.5t85.5 239.5t-85.5 240.5t-234.5 97.5q-144 0 -229.5 -94.5t-85.5 -243.5z" />
<glyph unicode="&#xe3;" d="M78 471q0 140 56 252.5t164 179t251 66.5q111 0 199 -52t133 -141v168h176v-944h-176v166q-44 -87 -136.5 -139t-199.5 -52q-146 0 -253.5 66.5t-160.5 177.5t-53 252zM221 1212q82 138 201 138q47 0 101 -29t104 -57.5t88 -28.5q40 0 73 19t72 67l66 -96 q-78 -138 -201 -138q-47 0 -101 29.5t-104 58.5t-88 29q-39 0 -72 -19.5t-71 -66.5zM254 471q0 -147 85.5 -241.5t229.5 -94.5q149 0 234.5 96.5t85.5 239.5t-85.5 240.5t-234.5 97.5q-144 0 -229.5 -94.5t-85.5 -243.5z" />
<glyph unicode="&#xe4;" d="M78 471q0 140 56 252.5t164 179t251 66.5q111 0 199 -52t133 -141v168h176v-944h-176v166q-44 -87 -136.5 -139t-199.5 -52q-146 0 -253.5 66.5t-160.5 177.5t-53 252zM231 1241q0 57 40.5 97t97.5 40q58 0 97.5 -40t39.5 -97t-40 -97t-97 -40t-97.5 40t-40.5 97z M254 471q0 -147 85.5 -241.5t229.5 -94.5q149 0 234.5 96.5t85.5 239.5t-85.5 240.5t-234.5 97.5q-144 0 -229.5 -94.5t-85.5 -243.5zM641 1241q0 57 40 97t97 40t97 -40t40 -97t-40 -97t-97 -40t-97 40t-40 97z" />
<glyph unicode="&#xe5;" d="M78 471q0 140 56 252.5t164 179t251 66.5q111 0 199 -52t133 -141v168h176v-944h-176v166q-44 -87 -136.5 -139t-199.5 -52q-146 0 -253.5 66.5t-160.5 177.5t-53 252zM254 471q0 -147 85.5 -241.5t229.5 -94.5q149 0 234.5 96.5t85.5 239.5t-85.5 240.5t-234.5 97.5 q-144 0 -229.5 -94.5t-85.5 -243.5zM346 1245q0 97 65.5 160t161.5 63t162 -63t66 -160t-66 -160t-162 -63t-161.5 63t-65.5 160zM449 1245q0 -58 35.5 -94.5t88.5 -36.5t89 36.5t36 94.5t-36 94.5t-89 36.5t-88.5 -36.5t-35.5 -94.5z" />
<glyph unicode="&#xe6;" horiz-adv-x="1783" d="M88 250q0 155 111 229q60 42 144.5 57t246.5 15h215v82q0 86 -61 139t-191 53q-121 0 -184.5 -49.5t-69.5 -140.5h-178q9 152 128.5 243t307.5 91q262 0 361 -158q129 154 344 154q196 0 320 -124t124 -319q0 -59 -4 -106h-733q3 -135 84 -211t217 -76q187 0 246 152h180 q-25 -137 -143.5 -222.5t-282.5 -85.5q-128 0 -229.5 54t-161.5 153q-129 -205 -416 -205q-168 0 -271.5 75.5t-103.5 199.5zM266 264q0 -74 61 -110.5t171 -36.5q80 0 147.5 26.5t113.5 86.5t46 145v41h-281q-133 0 -195.5 -41t-62.5 -111zM969 553h563q0 125 -73 198.5 t-197 73.5q-128 0 -208.5 -74.5t-84.5 -197.5z" />
<glyph unicode="&#xe7;" horiz-adv-x="1062" d="M78 471q0 222 126.5 359t342.5 137q188 0 305.5 -95.5t134.5 -255.5h-178q-38 191 -264 191q-135 0 -213 -89t-78 -247q0 -157 78 -246.5t213 -89.5q225 0 264 184h178q-15 -147 -120.5 -239.5t-276.5 -102.5v-106q28 31 94 31q65 0 109.5 -44t44.5 -120 q0 -78 -48.5 -128t-136.5 -50q-76 0 -123 38.5t-53 106.5h94q1 -29 24 -47t56 -18q41 0 64.5 25t23.5 71q0 45 -22 69.5t-62 24.5q-55 0 -80 -41h-81v188q-193 19 -304.5 153t-111.5 341z" />
<glyph unicode="&#xe8;" horiz-adv-x="1067" d="M78 473q0 224 127 360t338 136q199 0 322.5 -124.5t123.5 -320.5q0 -61 -4 -104h-731q3 -136 82 -212.5t215 -76.5q190 0 250 139h178q-25 -131 -144 -213t-284 -82q-218 0 -345.5 134.5t-127.5 363.5zM254 557h561q0 125 -72.5 196.5t-201.5 71.5q-127 0 -204 -73 t-83 -195zM264 1339l101 105l344 -297l-101 -107z" />
<glyph unicode="&#xe9;" horiz-adv-x="1067" d="M78 473q0 224 127 360t338 136q199 0 322.5 -124.5t123.5 -320.5q0 -61 -4 -104h-731q3 -136 82 -212.5t215 -76.5q190 0 250 139h178q-25 -131 -144 -213t-284 -82q-218 0 -345.5 134.5t-127.5 363.5zM254 557h561q0 125 -72.5 196.5t-201.5 71.5q-127 0 -204 -73 t-83 -195zM375 1147l344 297l100 -105l-344 -299z" />
<glyph unicode="&#xea;" horiz-adv-x="1067" d="M78 473q0 224 127 360t338 136q199 0 322.5 -124.5t123.5 -320.5q0 -61 -4 -104h-731q3 -136 82 -212.5t215 -76.5q190 0 250 139h178q-25 -131 -144 -213t-284 -82q-218 0 -345.5 134.5t-127.5 363.5zM215 1133l328 303l327 -303l-106 -103l-221 209l-224 -209zM254 557 h561q0 125 -72.5 196.5t-201.5 71.5q-127 0 -204 -73t-83 -195z" />
<glyph unicode="&#xeb;" horiz-adv-x="1067" d="M78 473q0 224 127 360t338 136q199 0 322.5 -124.5t123.5 -320.5q0 -61 -4 -104h-731q3 -136 82 -212.5t215 -76.5q190 0 250 139h178q-25 -131 -144 -213t-284 -82q-218 0 -345.5 134.5t-127.5 363.5zM199 1241q0 57 40 97t97 40q58 0 97.5 -40t39.5 -97t-40 -97 t-97 -40t-97 40t-40 97zM254 557h561q0 125 -72.5 196.5t-201.5 71.5q-127 0 -204 -73t-83 -195zM608 1241q0 57 40 97t97 40t97.5 -40t40.5 -97t-40.5 -97t-97.5 -40t-97 40t-40 97z" />
<glyph unicode="&#xec;" horiz-adv-x="483" d="M-35 1339l101 105l344 -297l-101 -107zM154 0v944h176v-944h-176z" />
<glyph unicode="&#xed;" horiz-adv-x="483" d="M74 1147l344 297l100 -105l-344 -299zM154 0v944h176v-944h-176z" />
<glyph unicode="&#xee;" horiz-adv-x="483" d="M-84 1133l328 303l327 -303l-106 -103l-221 209l-224 -209zM154 0v944h176v-944h-176z" />
<glyph unicode="&#xef;" horiz-adv-x="483" d="M-12 1235q0 51 33 85t83 34t84.5 -34t34.5 -85q0 -46 -35 -80.5t-84 -34.5t-82.5 34t-33.5 81zM154 0v944h176v-944h-176zM260 1235q0 50 34.5 84.5t82.5 34.5q50 0 84.5 -34t34.5 -85q0 -46 -35 -80.5t-84 -34.5q-47 0 -82 34.5t-35 80.5z" />
<glyph unicode="&#xf0;" horiz-adv-x="1136" d="M78 471q0 222 140.5 360t363.5 138q24 0 36 -2l-110 159l-176 -96l-53 98l165 89l-149 217h223l88 -129l166 88l53 -93l-157 -86l297 -434q96 -132 96 -309q0 -138 -58.5 -250t-172 -179t-261.5 -67q-112 0 -205.5 39t-155.5 106.5t-96 157.5t-34 193zM254 471 q0 -145 85 -240.5t230 -95.5t229.5 95t84.5 241q0 147 -84.5 242.5t-229.5 95.5t-230 -95.5t-85 -242.5z" />
<glyph unicode="&#xf1;" horiz-adv-x="1155" d="M154 0v944h178v-174q39 93 124.5 146t205.5 53q173 0 261.5 -98.5t88.5 -288.5v-582h-176v504q0 160 -56.5 235.5t-181.5 75.5q-129 0 -197.5 -84.5t-68.5 -230.5v-500h-178zM223 1212q82 138 201 138q47 0 101 -29t104 -57.5t88 -28.5q40 0 73 19t72 67l66 -96 q-78 -138 -201 -138q-47 0 -101 29.5t-104 58.5t-88 29q-39 0 -72 -19.5t-71 -66.5z" />
<glyph unicode="&#xf2;" horiz-adv-x="1136" d="M78 471q0 213 133.5 355.5t357.5 142.5q149 0 262 -67t171.5 -179.5t58.5 -251.5q0 -138 -58.5 -250t-172 -179t-261.5 -67q-112 0 -205.5 39t-155.5 106.5t-96 157.5t-34 193zM254 471q0 -145 85 -240.5t230 -95.5t229.5 95t84.5 241q0 147 -84.5 242.5t-229.5 95.5 t-230 -95.5t-85 -242.5zM291 1339l100 105l344 -297l-100 -107z" />
<glyph unicode="&#xf3;" horiz-adv-x="1136" d="M78 471q0 213 133.5 355.5t357.5 142.5q149 0 262 -67t171.5 -179.5t58.5 -251.5q0 -138 -58.5 -250t-172 -179t-261.5 -67q-112 0 -205.5 39t-155.5 106.5t-96 157.5t-34 193zM254 471q0 -145 85 -240.5t230 -95.5t229.5 95t84.5 241q0 147 -84.5 242.5t-229.5 95.5 t-230 -95.5t-85 -242.5zM401 1147l344 297l101 -105l-344 -299z" />
<glyph unicode="&#xf4;" horiz-adv-x="1136" d="M78 471q0 213 133.5 355.5t357.5 142.5q149 0 262 -67t171.5 -179.5t58.5 -251.5q0 -138 -58.5 -250t-172 -179t-261.5 -67q-112 0 -205.5 39t-155.5 106.5t-96 157.5t-34 193zM242 1133l327 303l328 -303l-106 -103l-222 209l-223 -209zM254 471q0 -145 85 -240.5 t230 -95.5t229.5 95t84.5 241q0 147 -84.5 242.5t-229.5 95.5t-230 -95.5t-85 -242.5z" />
<glyph unicode="&#xf5;" horiz-adv-x="1136" d="M78 471q0 213 133.5 355.5t357.5 142.5q149 0 262 -67t171.5 -179.5t58.5 -251.5q0 -138 -58.5 -250t-172 -179t-261.5 -67q-112 0 -205.5 39t-155.5 106.5t-96 157.5t-34 193zM215 1212q82 138 201 138q47 0 101 -29t104 -57.5t88 -28.5q40 0 73 19t72 67l66 -96 q-78 -138 -201 -138q-47 0 -101 29.5t-104 58.5t-88 29q-39 0 -72 -19.5t-71 -66.5zM254 471q0 -145 85 -240.5t230 -95.5t229.5 95t84.5 241q0 147 -84.5 242.5t-229.5 95.5t-230 -95.5t-85 -242.5z" />
<glyph unicode="&#xf6;" horiz-adv-x="1136" d="M78 471q0 213 133.5 355.5t357.5 142.5q149 0 262 -67t171.5 -179.5t58.5 -251.5q0 -138 -58.5 -250t-172 -179t-261.5 -67q-112 0 -205.5 39t-155.5 106.5t-96 157.5t-34 193zM225 1241q0 57 40 97t97 40q58 0 98 -40t40 -97t-40.5 -97t-97.5 -40t-97 40t-40 97z M254 471q0 -145 85 -240.5t230 -95.5t229.5 95t84.5 241q0 147 -84.5 242.5t-229.5 95.5t-230 -95.5t-85 -242.5zM635 1241q0 57 40 97t97 40t97 -40t40 -97t-40 -97t-97 -40t-97 40t-40 97z" />
<glyph unicode="&#xf7;" horiz-adv-x="1032" d="M109 559v158h815v-158h-815zM375 326q0 60 41 101.5t100 41.5q60 0 101.5 -41.5t41.5 -101.5t-41.5 -102t-101.5 -42q-59 0 -100 42t-41 102zM375 963q0 60 41 101.5t100 41.5q60 0 101.5 -41.5t41.5 -101.5t-41.5 -102t-101.5 -42q-59 0 -100 42t-41 102z" />
<glyph unicode="&#xf8;" horiz-adv-x="1136" d="M78 471q0 213 133.5 355.5t357.5 142.5q74 0 156 -21l59 135l103 -47l-58 -133q110 -64 171 -178t61 -254q0 -138 -58.5 -250t-172 -179t-261.5 -67q-65 0 -135 17l-63 -146l-103 48l60 137q-119 61 -184.5 177.5t-65.5 262.5zM254 471q0 -93 36 -169t103 -118l266 613 q-41 12 -90 12q-145 0 -230 -95.5t-85 -242.5zM500 141q30 -6 69 -6q145 0 229.5 95t84.5 241q0 88 -31.5 160.5t-89.5 116.5z" />
<glyph unicode="&#xf9;" horiz-adv-x="1150" d="M143 362v582h179v-541q0 -274 229 -274q70 0 123.5 25t84 68t45.5 95t15 111v516h178v-944h-178v172q-40 -91 -121.5 -144t-195.5 -53q-164 0 -261.5 99t-97.5 288zM301 1339l100 105l344 -297l-100 -107z" />
<glyph unicode="&#xfa;" horiz-adv-x="1150" d="M143 362v582h179v-541q0 -274 229 -274q70 0 123.5 25t84 68t45.5 95t15 111v516h178v-944h-178v172q-40 -91 -121.5 -144t-195.5 -53q-164 0 -261.5 99t-97.5 288zM410 1147l344 297l100 -105l-344 -299z" />
<glyph unicode="&#xfb;" horiz-adv-x="1150" d="M143 362v582h179v-541q0 -274 229 -274q70 0 123.5 25t84 68t45.5 95t15 111v516h178v-944h-178v172q-40 -91 -121.5 -144t-195.5 -53q-164 0 -261.5 99t-97.5 288zM252 1133l328 303l327 -303l-106 -103l-221 209l-224 -209z" />
<glyph unicode="&#xfc;" horiz-adv-x="1150" d="M143 362v582h179v-541q0 -274 229 -274q70 0 123.5 25t84 68t45.5 95t15 111v516h178v-944h-178v172q-40 -91 -121.5 -144t-195.5 -53q-164 0 -261.5 99t-97.5 288zM236 1241q0 57 40 97t97 40q58 0 97.5 -40t39.5 -97t-40 -97t-97 -40t-97 40t-40 97zM645 1241 q0 57 40 97t97 40t97.5 -40t40.5 -97t-40.5 -97t-97.5 -40t-97 40t-40 97z" />
<glyph unicode="&#xfd;" horiz-adv-x="1161" d="M143 -119h179q6 -92 63 -142t182 -50t193.5 74.5t68.5 230.5v176q-43 -89 -127 -141t-200 -52q-179 0 -269 108.5t-90 295.5v563h176v-526q0 -136 55 -209.5t187 -73.5q129 0 198.5 93.5t69.5 230.5v485h177v-962q0 -222 -127 -340q-119 -103 -310 -103q-203 0 -319 99 q-104 87 -107 243zM399 1147l344 297l101 -105l-344 -299z" />
<glyph unicode="&#xfe;" d="M154 -436v1870h176v-658q46 89 140 141t208 52q203 0 330 -138.5t127 -359.5q0 -217 -131.5 -356.5t-335.5 -139.5q-109 0 -200.5 51.5t-137.5 139.5v-602h-176zM322 471q0 -148 90 -242t231 -94q137 0 225 94.5t88 241.5q0 148 -88 243t-225 95q-141 0 -231 -94.5 t-90 -243.5z" />
<glyph unicode="&#xff;" horiz-adv-x="1161" d="M143 -119h179q6 -92 63 -142t182 -50t193.5 74.5t68.5 230.5v176q-43 -89 -127 -141t-200 -52q-179 0 -269 108.5t-90 295.5v563h176v-526q0 -136 55 -209.5t187 -73.5q129 0 198.5 93.5t69.5 230.5v485h177v-962q0 -222 -127 -340q-119 -103 -310 -103q-203 0 -319 99 q-104 87 -107 243zM223 1241q0 57 40 97t97 40q58 0 98 -40t40 -97t-40.5 -97t-97.5 -40t-97 40t-40 97zM633 1241q0 57 40 97t97 40t97 -40t40 -97t-40 -97t-97 -40t-97 40t-40 97z" />
<glyph unicode="&#x152;" horiz-adv-x="1800" d="M78 717q0 145 47.5 274.5t134 228t217.5 156.5t287 58h899v-168h-573v-469h573v-168h-573v-461h573v-168h-899q-156 0 -287 58t-217.5 156.5t-134 228t-47.5 274.5zM272 717q0 -112 33.5 -211t94.5 -174.5t155.5 -119.5t208.5 -44h139v1098h-139q-114 0 -208.5 -44 t-155.5 -119.5t-94.5 -174.5t-33.5 -211z" />
<glyph unicode="&#x153;" horiz-adv-x="1873" d="M78 471q0 213 133.5 355.5t357.5 142.5q129 0 231 -50.5t167 -140.5q62 92 160 141.5t223 49.5q199 0 322.5 -124.5t123.5 -320.5q0 -61 -4 -104h-731q3 -136 81.5 -212.5t215.5 -76.5q188 0 248 139h180q-25 -131 -144 -213t-284 -82q-129 0 -229 49.5t-162 141.5 q-65 -90 -167 -140.5t-231 -50.5q-112 0 -205.5 39t-155.5 106.5t-96 157.5t-34 193zM254 471q0 -145 85 -240.5t230 -95.5t229.5 95t84.5 241q0 147 -84.5 242.5t-229.5 95.5t-230 -95.5t-85 -242.5zM1061 557h561q-2 125 -74 196.5t-200 71.5q-127 0 -204 -73t-83 -195z " />
<glyph unicode="&#x178;" horiz-adv-x="1128" d="M-20 1434h217l419 -672l340 672h203l-721 -1434h-205l289 569zM211 1667q0 57 39 97t96 40q58 0 97.5 -40t39.5 -97t-39.5 -97t-97.5 -40q-57 0 -96 40t-39 97zM694 1667q0 57 39.5 97t95.5 40q58 0 99 -40t41 -97t-41 -97t-99 -40q-56 0 -95.5 40t-39.5 97z" />
<glyph unicode="&#x2c6;" horiz-adv-x="1228" d="M100 1133l328 303l328 -303l-107 -103l-221 209l-223 -209z" />
<glyph unicode="&#x2dc;" horiz-adv-x="1228" d="M90 1212q82 138 201 138q47 0 101 -29t104 -57.5t88 -28.5q40 0 73 19t72 67l66 -96q-78 -138 -201 -138q-47 0 -101 29.5t-104 58.5t-88 29q-39 0 -72 -19.5t-71 -66.5z" />
<glyph unicode="&#x2000;" horiz-adv-x="920" />
<glyph unicode="&#x2001;" horiz-adv-x="1841" />
<glyph unicode="&#x2002;" horiz-adv-x="920" />
<glyph unicode="&#x2003;" horiz-adv-x="1841" />
<glyph unicode="&#x2004;" horiz-adv-x="613" />
<glyph unicode="&#x2005;" horiz-adv-x="460" />
<glyph unicode="&#x2006;" horiz-adv-x="306" />
<glyph unicode="&#x2007;" horiz-adv-x="306" />
<glyph unicode="&#x2008;" horiz-adv-x="230" />
<glyph unicode="&#x2009;" horiz-adv-x="368" />
<glyph unicode="&#x200a;" horiz-adv-x="102" />
<glyph unicode="&#x2010;" horiz-adv-x="839" d="M109 457v159h624v-159h-624z" />
<glyph unicode="&#x2011;" horiz-adv-x="839" d="M109 457v159h624v-159h-624z" />
<glyph unicode="&#x2012;" horiz-adv-x="839" d="M109 457v159h624v-159h-624z" />
<glyph unicode="&#x2013;" horiz-adv-x="1251" d="M109 481v144h1034v-144h-1034z" />
<glyph unicode="&#x2014;" horiz-adv-x="1634" d="M109 485v144h1417v-144h-1417z" />
<glyph unicode="&#x2018;" horiz-adv-x="565" d="M133 1241q0 121 65 195.5t181 74.5q49 0 65 -4v-82q-31 5 -63 5q-39 0 -69.5 -18.5t-45.5 -49.5q-26 -45 -26 -102q23 30 77 30q56 0 94 -36.5t38 -96.5t-40 -98.5t-102 -38.5q-68 0 -121 57.5t-53 163.5z" />
<glyph unicode="&#x2019;" horiz-adv-x="565" d="M119 1333q0 61 38.5 99t100.5 38q68 0 121 -57t53 -164q0 -122 -64.5 -196t-181.5 -74q-41 0 -65 6v80q50 -4 63 -4q82 0 115 67q27 46 27 103q-24 -31 -78 -31q-55 0 -92 36.5t-37 96.5z" />
<glyph unicode="&#x201a;" horiz-adv-x="565" d="M119 117q0 60 39 98.5t100 38.5q68 0 121 -57.5t53 -163.5q0 -122 -64.5 -196.5t-181.5 -74.5q-45 0 -65 5v81q25 -4 63 -4q39 0 69.5 18.5t45.5 49.5q27 46 27 102q-23 -30 -78 -30t-92 36.5t-37 96.5z" />
<glyph unicode="&#x201c;" horiz-adv-x="942" d="M133 1241q0 121 65 195.5t181 74.5q49 0 65 -4v-82q-31 5 -63 5q-39 0 -69.5 -18.5t-45.5 -49.5q-26 -45 -26 -102q23 30 77 30q56 0 94 -36.5t38 -96.5t-40 -98.5t-102 -38.5q-68 0 -121 57.5t-53 163.5zM508 1241q0 121 65.5 195.5t182.5 74.5q47 0 65 -4v-82 q-31 5 -63 5q-39 0 -69.5 -18.5t-45.5 -49.5q-29 -45 -29 -102q23 30 80 30q54 0 91.5 -36.5t37.5 -96.5t-39 -98.5t-100 -38.5q-69 0 -122.5 57.5t-53.5 163.5z" />
<glyph unicode="&#x201d;" horiz-adv-x="942" d="M119 1333q0 61 38.5 99t100.5 38q68 0 121 -57t53 -164q0 -122 -64.5 -196t-181.5 -74q-41 0 -65 6v80q50 -4 63 -4q82 0 115 67q27 46 27 103q-24 -31 -78 -31q-55 0 -92 36.5t-37 96.5zM494 1333q0 61 38.5 99t100.5 38q69 0 122.5 -57t53.5 -164q0 -121 -65.5 -195.5 t-182.5 -74.5q-38 0 -65 6v80q50 -4 63 -4q82 0 115 67q28 43 28 103q-24 -31 -79 -31q-54 0 -91.5 36.5t-37.5 96.5z" />
<glyph unicode="&#x201e;" horiz-adv-x="942" d="M119 117q0 60 39 98.5t100 38.5q68 0 121 -57.5t53 -163.5q0 -122 -64.5 -196.5t-181.5 -74.5q-45 0 -65 5v81q25 -4 63 -4q39 0 69.5 18.5t45.5 49.5q27 46 27 102q-23 -30 -78 -30t-92 36.5t-37 96.5zM494 117q0 60 39 98.5t100 38.5q69 0 122.5 -57.5t53.5 -163.5 q0 -122 -65.5 -196.5t-182.5 -74.5q-43 0 -65 5v81q25 -4 63 -4q39 0 69.5 18.5t45.5 49.5q28 43 28 102q-23 -30 -79 -30q-54 0 -91.5 36.5t-37.5 96.5z" />
<glyph unicode="&#x2022;" horiz-adv-x="733" d="M129 639q0 100 70 170t168 70q100 0 169.5 -70t69.5 -170q0 -99 -70 -168.5t-169 -69.5q-98 0 -168 70t-70 168z" />
<glyph unicode="&#x2026;" horiz-adv-x="1579" d="M143 127q0 62 43.5 105.5t104.5 43.5q63 0 107 -43.5t44 -105.5t-44 -106t-107 -44q-61 0 -104.5 44t-43.5 106zM637 127q0 62 43 105.5t106 43.5q62 0 106 -44t44 -105t-44 -105.5t-106 -44.5q-63 0 -106 44t-43 106zM1137 127q0 62 42.5 105.5t104.5 43.5 q63 0 107.5 -43.5t44.5 -105.5t-44.5 -106t-107.5 -44q-62 0 -104.5 44t-42.5 106z" />
<glyph unicode="&#x202f;" horiz-adv-x="368" />
<glyph unicode="&#x2039;" horiz-adv-x="565" d="M12 535l424 393l101 -103l-312 -290l312 -291l-101 -103z" />
<glyph unicode="&#x203a;" horiz-adv-x="565" d="M29 244l311 291l-311 290l100 103l424 -393l-424 -394z" />
<glyph unicode="&#x205f;" horiz-adv-x="460" />
<glyph unicode="&#x20ac;" horiz-adv-x="1218" d="M43 498l33 125h94q-2 25 -2 75q0 49 2 74h-123l33 125h98q65 520 488 520q194 0 311 -117.5t143 -304.5h-182q-18 119 -86.5 188.5t-185.5 69.5q-143 0 -214.5 -91.5t-93.5 -264.5h422l-32 -125h-398q-2 -25 -2 -74q0 -50 2 -75h428l-33 -125h-387q22 -172 94 -264.5 t214 -92.5q118 0 187 70t85 188h182q-26 -187 -143 -304.5t-311 -117.5q-425 0 -486 521h-137z" />
<glyph unicode="&#x2122;" horiz-adv-x="1703" d="M12 1313v121h541v-121h-205v-713h-133v713h-203zM688 600v834h219l207 -605l207 605h219v-834h-133v684l-233 -684h-119l-234 684v-684h-133z" />
<glyph unicode="&#x25fc;" horiz-adv-x="942" d="M0 0v942h942v-942h-942z" />
<glyph unicode="&#xfb03;" horiz-adv-x="1968" d="M43 795v149h201v164q0 84 22 148t54 99t75.5 56.5t78.5 28t71 6.5q84 0 143 -23v-151q-54 14 -98 14q-26 0 -45.5 -2.5t-44 -13t-40.5 -28t-27 -51t-11 -79.5v-168h266v-149h-266v-795h-178v795h-201zM809 795v149h201v164q0 84 22 148t54 99t75.5 56.5t78.5 28t71 6.5 q84 0 143 -23v-151q-54 14 -98 14q-26 0 -45.5 -2.5t-44 -13t-40.5 -28t-27 -51t-11 -79.5v-168h266v-149h-266v-795h-178v795h-201zM1581 1249q0 61 41 103.5t104 42.5q62 0 103 -42.5t41 -103.5t-41 -102t-103 -41q-64 0 -104.5 41t-40.5 102zM1638 0v944h177v-944h-177z " />
<glyph unicode="&#xfb04;" horiz-adv-x="1970" d="M43 795v149h201v164q0 84 22 148t54 99t75.5 56.5t78.5 28t71 6.5q84 0 143 -23v-151q-54 14 -98 14q-26 0 -45.5 -2.5t-44 -13t-40.5 -28t-27 -51t-11 -79.5v-168h266v-149h-266v-795h-178v795h-201zM809 795v149h201v164q0 84 22 148t54 99t75.5 56.5t78.5 28t71 6.5 q84 0 143 -23v-151q-54 14 -98 14q-26 0 -45.5 -2.5t-44 -13t-40.5 -28t-27 -51t-11 -79.5v-168h266v-149h-266v-795h-178v795h-201zM1638 0v1434h179v-1434h-179z" />
</font>
</defs>
</svg>
